<svg width="167" height="48" viewBox="0 0 167 48" fill="none" xmlns="http://www.w3.org/2000/svg">
<path fill-rule="evenodd" clip-rule="evenodd" d="M160.813 48H6.18746C2.77729 48 0 45.2948 0 42V6C0 2.69327 2.77729 0 6.18746 0H160.813C164.22 0 167 2.69327 167 6V42C167 45.2948 164.22 48 160.813 48Z" fill="#1B1400"/>
<path d="M87.7208 15.8787C86.6345 15.8787 85.7188 15.4987 84.9946 14.7506C84.2764 14.0234 83.8754 13.0209 83.8933 11.9974C83.8933 10.9052 84.2644 9.98049 84.9946 9.24732C85.7158 8.49919 86.6315 8.11914 87.7178 8.11914C88.7921 8.11914 89.7078 8.49919 90.4439 9.24732C91.1741 10.0044 91.5452 10.9291 91.5452 11.9974C91.5332 13.0927 91.1622 14.0174 90.4439 14.7476C89.7228 15.5017 88.807 15.8787 87.7208 15.8787ZM55.3986 15.8787C54.3362 15.8787 53.4145 15.5047 52.6604 14.7655C51.9123 14.0294 51.5322 13.0987 51.5322 12.0004C51.5322 10.9022 51.9123 9.97151 52.6604 9.23535C53.3996 8.4962 54.3213 8.12213 55.3986 8.12213C55.9252 8.12213 56.437 8.22687 56.9277 8.43934C57.4095 8.64582 57.8016 8.92712 58.0918 9.27126L58.1636 9.35804L57.3527 10.1541L57.2689 10.0553C56.811 9.51066 56.1976 9.24433 55.3866 9.24433C54.6624 9.24433 54.031 9.50168 53.5103 10.0104C52.9866 10.5221 52.7203 11.1925 52.7203 12.0034C52.7203 12.8144 52.9866 13.4847 53.5103 13.9964C54.031 14.5052 54.6624 14.7625 55.3866 14.7625C56.1587 14.7625 56.808 14.5052 57.3138 13.9964C57.613 13.6972 57.7986 13.2782 57.8644 12.7486H55.2639V11.6294H58.9806L58.9956 11.7311C59.0225 11.9196 59.0494 12.1142 59.0494 12.2937C59.0494 13.3261 58.7382 14.161 58.1218 14.7775C57.4215 15.5077 56.5058 15.8787 55.3986 15.8787ZM98.3741 15.7201H97.228L93.7178 10.1032L93.7477 11.1147V15.7171H92.6016V8.28074H93.9093L93.9452 8.3376L97.2459 13.6284L97.216 12.6199V8.28074H98.3741V15.7201ZM79.1083 15.7201H77.9472V9.39994H75.9332V8.28074H81.1193V9.39994H79.1053V15.7201H79.1083ZM74.9876 15.7201H73.8295V8.28074H74.9876V15.7201ZM68.4789 15.7201H67.3208V9.39994H65.3068V8.28074H70.4928V9.39994H68.4789V15.7201ZM64.5736 15.7082H60.1327V8.28074H64.5736V9.39994H61.2938V11.4408H64.2534V12.5481H61.2938V14.589H64.5736V15.7082ZM85.8444 13.9815C86.3621 14.4992 86.9906 14.7595 87.7208 14.7595C88.4719 14.7595 89.0853 14.5052 89.5971 13.9815C90.1058 13.4728 90.3631 12.8054 90.3631 12.0004C90.3631 11.1955 90.1058 10.5251 89.6001 10.0194C89.0823 9.50168 88.4509 9.24134 87.7237 9.24134C86.9726 9.24134 86.3592 9.4957 85.8504 10.0194C85.3417 10.5281 85.0843 11.1955 85.0843 12.0004C85.0843 12.8054 85.3387 13.4757 85.8444 13.9815Z" fill="white"/>
<path fill-rule="evenodd" clip-rule="evenodd" d="M83.7855 26.1073C80.9576 26.1073 78.6653 28.2529 78.6653 31.2125C78.6653 34.1452 80.9725 36.3178 83.7855 36.3178C86.6134 36.3178 88.9057 34.1572 88.9057 31.2125C88.9057 28.2529 86.6134 26.1073 83.7855 26.1073ZM83.7855 34.2948C82.2384 34.2948 80.9067 33.014 80.9067 31.2005C80.9067 29.3602 82.2414 28.1063 83.7855 28.1063C85.3326 28.1063 86.6643 29.3602 86.6643 31.2005C86.6673 33.026 85.3326 34.2948 83.7855 34.2948ZM72.6144 26.1073C69.7865 26.1073 67.4942 28.2529 67.4942 31.2125C67.4942 34.1452 69.8014 36.3178 72.6144 36.3178C75.4423 36.3178 77.7346 34.1572 77.7346 31.2125C77.7346 28.2529 75.4394 26.1073 72.6144 26.1073ZM72.6144 34.2948C71.0673 34.2948 69.7356 33.014 69.7356 31.2005C69.7356 29.3602 71.0703 28.1063 72.6144 28.1063C74.1615 28.1063 75.4932 29.3602 75.4932 31.2005C75.4932 33.026 74.1615 34.2948 72.6144 34.2948ZM59.3216 27.6664V29.827H64.5077C64.3491 31.039 63.9481 31.9337 63.3346 32.5472C62.5745 33.3073 61.4014 34.1332 59.3336 34.1332C56.1466 34.1332 53.6538 31.5597 53.6538 28.3726C53.6538 25.1856 56.1466 22.612 59.3336 22.612C61.0543 22.612 62.3082 23.2913 63.2389 24.1592L64.771 22.627C63.4783 21.3881 61.7576 20.4395 59.3456 20.4395C54.9735 20.4395 51.3047 24.0006 51.3047 28.3607C51.3047 32.7327 54.9705 36.2818 59.3456 36.2818C61.7067 36.2818 63.4783 35.5098 64.8788 34.0554C66.3062 32.628 66.7581 30.614 66.7581 28.9891C66.7581 28.4833 66.7192 28.0285 66.6384 27.6424H59.3187C59.3216 27.6395 59.3216 27.6664 59.3216 27.6664ZM113.693 29.3482C113.265 28.202 111.972 26.0953 109.321 26.0953C106.693 26.0953 104.509 28.1631 104.509 31.2005C104.509 34.0674 106.669 36.3058 109.575 36.3058C111.909 36.3058 113.268 34.8784 113.827 34.0405L112.095 32.8794C111.52 33.7322 110.721 34.2918 109.587 34.2918C108.441 34.2918 107.639 33.7711 107.106 32.7447L113.932 29.9168C113.932 29.9198 113.693 29.3482 113.693 29.3482ZM106.732 31.0539C106.678 29.0818 108.264 28.0794 109.398 28.0794C110.293 28.0794 111.038 28.5193 111.293 29.1597L106.732 31.0539ZM101.187 36.0006H103.428V21.002H101.187V36.0006ZM97.5062 27.2414H97.4254C96.9196 26.64 95.959 26.0953 94.7321 26.0953C92.1855 26.0953 89.8393 28.3367 89.8393 31.2155C89.8393 34.0823 92.1735 36.2968 94.7321 36.2968C95.9441 36.2968 96.9196 35.7492 97.4254 35.1357H97.5062V35.8689C97.5062 37.817 96.4648 38.8674 94.786 38.8674C93.4124 38.8674 92.5595 37.8799 92.2124 37.0539L90.2643 37.8679C90.8239 39.2145 92.3172 40.8813 94.783 40.8813C97.4104 40.8813 99.6369 39.3342 99.6369 35.5607V26.4006H97.5182V27.2414C97.5211 27.2414 97.5062 27.2414 97.5062 27.2414ZM94.9326 34.2948C93.3855 34.2948 92.0927 33.002 92.0927 31.2155C92.0927 29.414 93.3855 28.1093 94.9326 28.1093C96.4648 28.1093 97.6528 29.429 97.6528 31.2155C97.6678 33.002 96.4678 34.2948 94.9326 34.2948ZM124.187 21.002H118.828V36.0006H121.069V30.3208H124.19C126.671 30.3208 129.11 28.5222 129.11 25.6674C129.11 22.8125 126.68 21.002 124.187 21.002ZM124.253 28.226H121.066V23.0789H124.253C125.932 23.0789 126.881 24.4644 126.881 25.6524C126.881 26.8285 125.92 28.226 124.253 28.226ZM138.094 26.0804C136.466 26.0804 134.787 26.8015 134.093 28.3726L136.08 29.1986C136.508 28.3726 137.292 28.0913 138.121 28.0913C139.282 28.0913 140.455 28.7856 140.482 30.0245V30.1831C140.081 29.9557 139.201 29.6085 138.148 29.6085C136.002 29.6085 133.826 30.7816 133.826 32.9811C133.826 34.9951 135.586 36.2878 137.546 36.2878C139.051 36.2878 139.88 35.6085 140.398 34.8215H140.479V35.9826H142.639V30.237C142.639 27.5616 140.652 26.0804 138.094 26.0804ZM137.812 34.2948C137.079 34.2948 136.053 33.9357 136.053 33.014C136.053 31.8529 137.334 31.413 138.426 31.413C139.413 31.413 139.88 31.6255 140.467 31.9188C140.305 33.2654 139.168 34.2828 137.812 34.2948ZM150.522 26.4006L147.948 32.9063H147.867L145.201 26.4006H142.789L146.79 35.4948L144.51 40.5492H146.844L152.999 26.4006H150.522ZM130.346 36.0006H132.587V21.002H130.346V36.0006Z" fill="white"/>
<path opacity="0.2" fill-rule="evenodd" clip-rule="evenodd" d="M32.4394 28.959L15.026 38.8523C14.0534 39.4119 13.1856 39.3729 12.626 38.8642L12.5332 38.957L12.626 39.0378C13.1856 39.5435 14.0534 39.5854 15.026 39.0258L32.5591 29.0667L32.4394 28.959Z" fill="black"/>
<path opacity="0.12" fill-rule="evenodd" clip-rule="evenodd" d="M38.4119 25.5591L32.4238 28.9586L32.5316 29.0663L38.3969 25.7327C39.2378 25.2539 39.6508 24.6254 39.6508 24C39.5999 24.5746 39.172 25.1192 38.4119 25.5591Z" fill="black"/>
<path fill-rule="evenodd" clip-rule="evenodd" d="M14.5476 9.04076C14.2005 9.41482 14 9.9864 14 10.7345V37.2692C14 38.0173 14.2005 38.5889 14.5596 38.948L14.6524 39.0288L29.5192 24.162V23.8298L14.6404 8.95996L14.5476 9.04076Z" fill="white"/>
<path fill-rule="evenodd" clip-rule="evenodd" d="M34.4654 29.1325L29.5068 24.1739V23.8268L34.4654 18.8682L34.5732 18.934L40.4385 22.2677C42.1173 23.2133 42.1173 24.7754 40.4385 25.733L34.5732 29.0667L34.4654 29.1325Z" fill="white" fill-opacity="0.3"/>
<path fill-rule="evenodd" clip-rule="evenodd" d="M34.5738 29.0663L29.5075 24L14.5479 38.9596C15.0955 39.5461 16.0142 39.612 17.0406 39.0404L34.5738 29.0663Z" fill="white" fill-opacity="0.6"/>
<path fill-rule="evenodd" clip-rule="evenodd" d="M34.5738 18.9339L17.0406 8.97482C16.0142 8.38829 15.0925 8.46909 14.5479 9.05562L29.5075 24.0003L34.5738 18.9339Z" fill="white" fill-opacity="0.6"/>
<path opacity="0.25" fill-rule="evenodd" clip-rule="evenodd" d="M17.0404 9.14873L40.4389 22.4415C41.199 22.8694 41.6269 23.429 41.6928 24.0006C41.6928 23.3752 41.2798 22.7467 40.4389 22.2679L17.0404 8.97517C15.3616 8.01457 14 8.81657 14 10.7348V10.9083C14 8.98714 15.3616 8.20011 17.0404 9.14873Z" fill="white"/>
</svg>
