<svg width="167" height="48" viewBox="0 0 167 48" fill="none" xmlns="http://www.w3.org/2000/svg">
<path d="M167 43.1884C167 45.8467 164.85 48 162.191 48H4.81526C2.1574 48 0 45.8467 0 43.1884V4.81784C0 2.1608 2.1574 0 4.81526 0H162.19C164.85 0 166.999 2.1608 166.999 4.81784L167 43.1884Z" fill="#1B1400"/>
<path d="M36.7995 23.7368C36.7631 19.6878 40.1148 17.7179 40.2681 17.6262C38.3699 14.8586 35.4277 14.4805 34.3937 14.4503C31.9226 14.1903 29.5257 15.929 28.2669 15.929C26.9829 15.929 25.0445 14.4755 22.9553 14.5182C20.2669 14.5596 17.7518 16.1162 16.3724 18.5333C13.5257 23.4616 15.6488 30.7041 18.3762 34.6878C19.7405 36.6388 21.3347 38.8172 23.4214 38.7405C25.4628 38.6564 26.2254 37.439 28.689 37.439C31.1299 37.439 31.846 38.7405 33.9741 38.6915C36.1651 38.6564 37.5445 36.7317 38.8611 34.7632C40.4377 32.527 41.0709 30.3247 41.096 30.2116C41.0445 30.1941 36.841 28.5898 36.7995 23.7368Z" fill="white"/>
<path d="M32.7795 11.8293C33.8775 10.4562 34.6288 8.58811 34.4202 6.69238C32.831 6.76273 30.8436 7.79163 29.6991 9.13459C28.6865 10.318 27.782 12.2577 28.0157 14.0818C29.8009 14.215 31.6338 13.1811 32.7795 11.8293Z" fill="white"/>
<path d="M66.3428 38.4598H63.4898L61.927 33.549H56.4948L55.0062 38.4598H52.2285L57.6104 21.7412H60.9345L66.3428 38.4598ZM61.4559 31.4887L60.0426 27.1231C59.8931 26.6771 59.6129 25.6269 59.1996 23.9736H59.1494C58.9848 24.6847 58.7197 25.7349 58.3554 27.1231L56.9672 31.4887H61.4559Z" fill="white"/>
<path d="M80.1835 32.2841C80.1835 34.3344 79.6295 35.955 78.5215 37.1447C77.529 38.2037 76.2966 38.7326 74.8255 38.7326C73.2375 38.7326 72.0968 38.1623 71.4021 37.0215H71.3519V43.3721H68.6735V30.3733C68.6735 29.0844 68.6395 27.7615 68.5742 26.4047H70.9297L71.0792 28.3155H71.1295C72.0227 26.8758 73.3782 26.1572 75.1973 26.1572C76.6194 26.1572 77.8066 26.7188 78.7564 27.8432C79.7086 28.9688 80.1835 30.4487 80.1835 32.2841ZM77.4549 32.3821C77.4549 31.2087 77.1911 30.2414 76.6609 29.4801C76.0818 28.6861 75.3041 28.2891 74.3292 28.2891C73.6684 28.2891 73.0679 28.5102 72.5315 28.9462C71.9938 29.3859 71.6421 29.96 71.4775 30.671C71.3946 31.0027 71.3531 31.2741 71.3531 31.4876V33.4977C71.3531 34.3746 71.622 35.1145 72.1596 35.7188C72.6973 36.3231 73.3958 36.6246 74.2551 36.6246C75.2639 36.6246 76.0491 36.2351 76.6107 35.4587C77.1735 34.6811 77.4549 33.656 77.4549 32.3821Z" fill="white"/>
<path d="M94.0485 32.2841C94.0485 34.3344 93.4944 35.955 92.3852 37.1447C91.3939 38.2037 90.1615 38.7326 88.6904 38.7326C87.1025 38.7326 85.9618 38.1623 85.2683 37.0215H85.2181V43.3721H82.5397V30.3733C82.5397 29.0844 82.5058 27.7615 82.4404 26.4047H84.796L84.9455 28.3155H84.9957C85.8877 26.8758 87.2432 26.1572 89.0635 26.1572C90.4844 26.1572 91.6716 26.7188 92.6238 27.8432C93.5723 28.9688 94.0485 30.4487 94.0485 32.2841ZM91.3198 32.3821C91.3198 31.2087 91.0547 30.2414 90.5246 29.4801C89.9455 28.6861 89.1703 28.2891 88.1942 28.2891C87.5321 28.2891 86.9329 28.5102 86.3952 28.9462C85.8575 29.3859 85.507 29.96 85.3424 30.671C85.2608 31.0027 85.2181 31.2741 85.2181 31.4876V33.4977C85.2181 34.3746 85.4869 35.1145 86.0221 35.7188C86.5598 36.3218 87.2583 36.6246 88.1201 36.6246C89.1289 36.6246 89.9141 36.2351 90.4756 35.4587C91.0384 34.6811 91.3198 33.656 91.3198 32.3821Z" fill="white"/>
<path d="M109.552 33.7712C109.552 35.1933 109.058 36.3504 108.067 37.2436C106.977 38.2197 105.461 38.7071 103.513 38.7071C101.714 38.7071 100.271 38.3604 99.1797 37.6657L99.8003 35.4333C100.976 36.1443 102.266 36.5011 103.672 36.5011C104.681 36.5011 105.466 36.2725 106.03 35.8177C106.592 35.3629 106.872 34.7524 106.872 33.9911C106.872 33.3127 106.641 32.7411 106.177 32.2775C105.716 31.8139 104.946 31.383 103.871 30.9848C100.944 29.8931 99.4812 28.2938 99.4812 26.1908C99.4812 24.8164 99.9938 23.6896 101.02 22.8127C102.043 21.9345 103.407 21.4961 105.113 21.4961C106.634 21.4961 107.898 21.7612 108.907 22.2901L108.237 24.4735C107.295 23.9609 106.23 23.7046 105.038 23.7046C104.096 23.7046 103.359 23.937 102.832 24.3994C102.386 24.8127 102.162 25.3164 102.162 25.9132C102.162 26.574 102.417 27.1205 102.93 27.5501C103.376 27.9471 104.186 28.3767 105.362 28.8403C106.8 29.4195 107.857 30.0966 108.536 30.873C109.214 31.6468 109.552 32.6154 109.552 33.7712Z" fill="white"/>
<path d="M118.407 28.4142H115.455V34.2672C115.455 35.7559 115.975 36.4996 117.018 36.4996C117.496 36.4996 117.893 36.4582 118.207 36.3753L118.282 38.4092C117.754 38.6064 117.059 38.7057 116.199 38.7057C115.141 38.7057 114.314 38.3828 113.717 37.7383C113.123 37.0926 112.824 36.0097 112.824 34.4883V28.4117H111.065V26.4016H112.824V24.1944L115.455 23.4004V26.4016H118.407V28.4142Z" fill="white"/>
<path d="M131.728 32.3328C131.728 34.1858 131.198 35.7072 130.14 36.8969C129.03 38.1218 127.558 38.7323 125.723 38.7323C123.954 38.7323 122.546 38.1456 121.495 36.9723C120.445 35.7989 119.92 34.3177 119.92 32.5326C119.92 30.6645 120.46 29.1343 121.544 27.9446C122.626 26.7537 124.086 26.1582 125.921 26.1582C127.69 26.1582 129.113 26.7449 130.188 27.9195C131.215 29.059 131.728 30.5301 131.728 32.3328ZM128.949 32.4195C128.949 31.3077 128.711 30.3542 128.23 29.559C127.669 28.5966 126.866 28.1167 125.826 28.1167C124.749 28.1167 123.931 28.5979 123.37 29.559C122.889 30.3554 122.651 31.324 122.651 32.4698C122.651 33.5816 122.889 34.5351 123.37 35.3291C123.949 36.2914 124.758 36.7713 125.802 36.7713C126.824 36.7713 127.627 36.2813 128.206 35.3039C128.7 34.4936 128.949 33.5301 128.949 32.4195Z" fill="white"/>
<path d="M140.433 28.7602C140.168 28.7112 139.885 28.6861 139.589 28.6861C138.647 28.6861 137.918 29.0416 137.406 29.754C136.96 30.3821 136.736 31.1761 136.736 32.1346V38.46H134.059L134.084 30.2012C134.084 28.8117 134.05 27.5467 133.983 26.406H136.316L136.414 28.7125H136.488C136.771 27.9198 137.217 27.2816 137.828 26.803C138.424 26.3721 139.069 26.1572 139.764 26.1572C140.011 26.1572 140.235 26.1748 140.433 26.2062V28.7602Z" fill="white"/>
<path d="M152.412 31.8612C152.412 32.3411 152.38 32.7456 152.314 33.076H144.279C144.31 34.267 144.698 35.1778 145.444 35.8059C146.122 36.3675 146.997 36.6489 148.073 36.6489C149.262 36.6489 150.348 36.4592 151.324 36.0785L151.743 37.9378C150.603 38.4353 149.256 38.6828 147.702 38.6828C145.833 38.6828 144.365 38.1325 143.297 37.0333C142.232 35.934 141.698 34.4579 141.698 32.6061C141.698 30.7883 142.194 29.2745 143.188 28.0672C144.228 26.7783 145.634 26.1338 147.403 26.1338C149.14 26.1338 150.456 26.7783 151.349 28.0672C152.056 29.0911 152.412 30.3574 152.412 31.8612ZM149.858 31.1665C149.875 30.3725 149.701 29.6866 149.338 29.1074C148.874 28.3624 148.162 27.9906 147.203 27.9906C146.328 27.9906 145.615 28.3536 145.071 29.0823C144.625 29.6614 144.36 30.3561 144.279 31.1652H149.858V31.1665Z" fill="white"/>
<path d="M60.5706 11.456C60.5706 12.9347 60.1271 14.0477 59.2414 14.7952C58.4211 15.4849 57.2553 15.8304 55.7452 15.8304C54.9965 15.8304 54.3558 15.7977 53.8193 15.7324V7.65328C54.5191 7.54021 55.2729 7.48242 56.0869 7.48242C57.5254 7.48242 58.6095 7.79524 59.3407 8.42086C60.1598 9.12815 60.5706 10.1395 60.5706 11.456ZM59.1824 11.4925C59.1824 10.5339 58.9286 9.799 58.4211 9.28644C57.9136 8.77513 57.1724 8.51885 56.1962 8.51885C55.7817 8.51885 55.4286 8.54649 55.1359 8.60428V14.7462C55.298 14.7714 55.5945 14.7827 56.0254 14.7827C57.0329 14.7827 57.8105 14.5025 58.3583 13.9422C58.906 13.3819 59.1824 12.5653 59.1824 11.4925Z" fill="white"/>
<path d="M67.9311 12.7475C67.9311 13.6583 67.6711 14.4045 67.151 14.99C66.6057 15.5917 65.8834 15.892 64.9814 15.892C64.112 15.892 63.4198 15.6043 62.9035 15.0264C62.3884 14.4498 62.1309 13.7224 62.1309 12.8455C62.1309 11.9284 62.3959 11.1759 62.9286 10.5917C63.4613 10.0076 64.1773 9.71484 65.0794 9.71484C65.9487 9.71484 66.6472 10.0025 67.1761 10.5792C67.6786 11.1395 67.9311 11.8631 67.9311 12.7475ZM66.5655 12.7902C66.5655 12.2437 66.4474 11.7751 66.2125 11.3844C65.9361 10.9121 65.5429 10.6759 65.0316 10.6759C64.5027 10.6759 64.1007 10.9121 63.8243 11.3844C63.5881 11.7751 63.4713 12.2513 63.4713 12.8141C63.4713 13.3606 63.5894 13.8292 63.8243 14.2199C64.1095 14.6922 64.5065 14.9284 65.019 14.9284C65.5216 14.9284 65.916 14.6885 66.2 14.2073C66.4437 13.8091 66.5655 13.3367 66.5655 12.7902Z" fill="white"/>
<path d="M77.8001 9.83594L75.9471 15.758H74.7411L73.9735 13.1864C73.7788 12.5445 73.6205 11.9063 73.4974 11.2731H73.4735C73.3592 11.9239 73.2009 12.5608 72.9974 13.1864L72.182 15.758H70.9622L69.2197 9.83594H70.5727L71.2423 12.6513C71.4044 13.3171 71.5376 13.9515 71.6443 14.552H71.6682C71.7662 14.057 71.9283 13.4264 72.1569 12.6638L72.9974 9.83719H74.0702L74.8755 12.6035C75.0702 13.2781 75.2285 13.9276 75.3504 14.5533H75.3868C75.476 13.944 75.6104 13.2945 75.7888 12.6035L76.5074 9.83719H77.8001V9.83594Z" fill="white"/>
<path d="M84.6255 15.7574H83.3089V12.3655C83.3089 11.3202 82.912 10.7976 82.1155 10.7976C81.7248 10.7976 81.4094 10.9408 81.1645 11.2285C80.922 11.5162 80.7989 11.8554 80.7989 12.2436V15.7562H79.4823V11.5275C79.4823 11.0074 79.466 10.4433 79.4346 9.8328H80.5916L80.6532 10.7587H80.6896C80.8429 10.471 81.0715 10.2336 81.3718 10.0439C81.7285 9.82275 82.128 9.71094 82.5652 9.71094C83.118 9.71094 83.5778 9.88933 83.9434 10.2474C84.3981 10.6858 84.6255 11.3403 84.6255 12.2097V15.7574Z" fill="white"/>
<path d="M88.2567 15.7576H86.9414V7.11816H88.2567V15.7576Z" fill="white"/>
<path d="M96.0073 12.7475C96.0073 13.6583 95.7472 14.4045 95.2271 14.99C94.6819 15.5917 93.9583 15.892 93.0575 15.892C92.1869 15.892 91.4947 15.6043 90.9796 15.0264C90.4646 14.4498 90.207 13.7224 90.207 12.8455C90.207 11.9284 90.4721 11.1759 91.0048 10.5917C91.5374 10.0076 92.2535 9.71484 93.1543 9.71484C94.0249 9.71484 94.7221 10.0025 95.2523 10.5792C95.7548 11.1395 96.0073 11.8631 96.0073 12.7475ZM94.6404 12.7902C94.6404 12.2437 94.5224 11.7751 94.2874 11.3844C94.0123 10.9121 93.6178 10.6759 93.1078 10.6759C92.5776 10.6759 92.1756 10.9121 91.9005 11.3844C91.6643 11.7751 91.5475 12.2513 91.5475 12.8141C91.5475 13.3606 91.6656 13.8292 91.9005 14.2199C92.1857 14.6922 92.5827 14.9284 93.0952 14.9284C93.5977 14.9284 93.9909 14.6885 94.2749 14.2073C94.5198 13.8091 94.6404 13.3367 94.6404 12.7902Z" fill="white"/>
<path d="M102.379 15.7576H101.197L101.099 15.0754H101.063C100.658 15.6194 100.082 15.892 99.3329 15.892C98.7739 15.892 98.3216 15.7123 97.9812 15.3555C97.6721 15.0314 97.5176 14.6282 97.5176 14.1495C97.5176 13.4259 97.8191 12.8744 98.4259 12.4925C99.0314 12.1106 99.8832 11.9234 100.98 11.9322V11.8216C100.98 11.0415 100.57 10.652 99.75 10.652C99.1658 10.652 98.6507 10.799 98.206 11.0905L97.9384 10.2261C98.4887 9.8857 99.1683 9.71484 99.9698 9.71484C101.518 9.71484 102.294 10.5314 102.294 12.1646V14.3455C102.294 14.9372 102.323 15.4083 102.379 15.7576ZM101.013 13.7224V12.8091C99.5603 12.7839 98.8342 13.1822 98.8342 14.0025C98.8342 14.3116 98.9171 14.5427 99.0867 14.6973C99.2563 14.8518 99.4724 14.9284 99.7299 14.9284C100.019 14.9284 100.289 14.8367 100.535 14.6545C100.783 14.4711 100.935 14.2387 100.991 13.9535C101.005 13.8895 101.013 13.8116 101.013 13.7224Z" fill="white"/>
<path d="M109.86 15.7576H108.692L108.63 14.8066H108.594C108.221 15.5302 107.585 15.892 106.692 15.892C105.978 15.892 105.384 15.6119 104.913 15.0516C104.442 14.4913 104.207 13.7639 104.207 12.8707C104.207 11.9121 104.462 11.1358 104.975 10.5428C105.471 9.99002 106.079 9.71364 106.803 9.71364C107.598 9.71364 108.154 9.98123 108.471 10.5177H108.496V7.11816H109.814V14.1621C109.814 14.7388 109.829 15.2702 109.86 15.7576ZM108.496 13.2601V12.2727C108.496 12.1018 108.483 11.9636 108.46 11.8581C108.385 11.5415 108.226 11.2752 107.983 11.0604C107.738 10.8456 107.443 10.7375 107.103 10.7375C106.612 10.7375 106.227 10.9322 105.944 11.3229C105.664 11.7136 105.522 12.2124 105.522 12.8217C105.522 13.4071 105.657 13.882 105.927 14.2476C106.212 14.637 106.596 14.8317 107.078 14.8317C107.51 14.8317 107.855 14.6697 108.118 14.3443C108.372 14.044 108.496 13.6822 108.496 13.2601Z" fill="white"/>
<path d="M121.121 12.7475C121.121 13.6583 120.861 14.4045 120.34 14.99C119.795 15.5917 119.074 15.892 118.171 15.892C117.303 15.892 116.611 15.6043 116.093 15.0264C115.578 14.4498 115.32 13.7224 115.32 12.8455C115.32 11.9284 115.585 11.1759 116.118 10.5917C116.651 10.0076 117.367 9.71484 118.27 9.71484C119.138 9.71484 119.838 10.0025 120.366 10.5792C120.868 11.1395 121.121 11.8631 121.121 12.7475ZM119.756 12.7902C119.756 12.2437 119.638 11.7751 119.403 11.3844C119.126 10.9121 118.734 10.6759 118.221 10.6759C117.693 10.6759 117.291 10.9121 117.014 11.3844C116.778 11.7751 116.661 12.2513 116.661 12.8141C116.661 13.3606 116.779 13.8292 117.014 14.2199C117.299 14.6922 117.696 14.9284 118.209 14.9284C118.711 14.9284 119.107 14.6885 119.391 14.2073C119.633 13.8091 119.756 13.3367 119.756 12.7902Z" fill="white"/>
<path d="M128.199 15.7574H126.884V12.3655C126.884 11.3202 126.487 10.7976 125.689 10.7976C125.299 10.7976 124.983 10.9408 124.74 11.2285C124.496 11.5162 124.374 11.8554 124.374 12.2436V15.7562H123.056V11.5275C123.056 11.0074 123.041 10.4433 123.01 9.8328H124.166L124.227 10.7587H124.264C124.418 10.471 124.647 10.2336 124.946 10.0439C125.304 9.82275 125.702 9.71094 126.14 9.71094C126.692 9.71094 127.152 9.88933 127.517 10.2474C127.973 10.6858 128.199 11.3403 128.199 12.2097V15.7574Z" fill="white"/>
<path d="M137.061 10.8214H135.611V13.6983C135.611 14.4294 135.869 14.795 136.379 14.795C136.615 14.795 136.811 14.7749 136.965 14.7335L136.999 15.7322C136.739 15.8302 136.398 15.8792 135.977 15.8792C135.457 15.8792 135.052 15.7209 134.759 15.4043C134.465 15.0877 134.32 14.5551 134.32 13.8076V10.8214H133.454V9.83523H134.32V8.7498L135.61 8.36035V9.83397H137.06V10.8214H137.061Z" fill="white"/>
<path d="M144.03 15.7576H142.712V12.3908C142.712 11.3292 142.315 10.7978 141.52 10.7978C140.909 10.7978 140.492 11.1056 140.264 11.7212C140.225 11.8506 140.202 12.0089 140.202 12.1948V15.7564H138.887V7.11816H140.202V10.6873H140.227C140.642 10.0378 141.236 9.71364 142.006 9.71364C142.551 9.71364 143.002 9.89203 143.36 10.2501C143.806 10.6961 144.03 11.3594 144.03 12.2363V15.7576Z" fill="white"/>
<path d="M151.22 12.5159C151.22 12.7521 151.203 12.9506 151.171 13.1127H147.223C147.24 13.6981 147.429 14.1441 147.794 14.4531C148.128 14.7295 148.559 14.8677 149.087 14.8677C149.671 14.8677 150.204 14.7747 150.684 14.5875L150.89 15.5021C150.328 15.7458 149.667 15.8677 148.902 15.8677C147.985 15.8677 147.263 15.5976 146.74 15.0574C146.215 14.5172 145.955 13.7923 145.955 12.8828C145.955 11.9896 146.198 11.2458 146.686 10.6529C147.196 10.0197 147.886 9.70312 148.757 9.70312C149.608 9.70312 150.255 10.0197 150.693 10.6529C151.046 11.1554 151.22 11.7772 151.22 12.5159ZM149.964 12.1755C149.974 11.7848 149.887 11.4481 149.709 11.1642C149.48 10.7986 149.132 10.6152 148.661 10.6152C148.231 10.6152 147.881 10.7936 147.613 11.1516C147.395 11.4368 147.265 11.7772 147.223 12.1755H149.964Z" fill="white"/>
</svg>
