<svg width="35" height="60" viewBox="0 0 35 60" fill="none" xmlns="http://www.w3.org/2000/svg">
<path fill-rule="evenodd" clip-rule="evenodd" d="M16.764 0.808247C16.4928 1.25296 16.2319 1.68521 16.1841 1.76887C16.1363 1.85254 15.8645 2.30466 15.5802 2.7736C15.0285 3.68342 14.9661 3.78757 14.9196 3.87695C14.8805 3.95176 14.9587 4.04705 15.7101 4.84039C16.6402 5.82248 16.6378 5.81934 16.6369 6.02886C16.6342 6.61794 16.3352 7.3773 15.848 8.03218C15.5342 8.45388 14.5822 9.44788 14.0736 9.88477C13.9716 9.97242 13.7706 10.1517 13.6269 10.2832C13.4833 10.4147 13.2101 10.6594 13.02 10.827C12.8299 10.9945 12.6513 11.1527 12.6232 11.1785C12.5951 11.2043 12.4135 11.3623 12.2197 11.5297C11.8575 11.8424 10.9457 12.6528 10.9037 12.6992C10.8908 12.7135 10.7216 12.8622 10.5277 13.0295C10.3339 13.1969 10.1515 13.3551 10.1225 13.3811C7.10286 16.0885 5.40711 17.9887 4.17257 20.0485C3.80606 20.6599 3.73707 20.8397 3.92474 20.6937C4.88062 19.9505 6.06318 19.3281 7.30679 18.9136C8.86013 18.396 10.6997 18.1446 12.4782 18.2072C14.6111 18.2821 16.3987 18.5302 20.4447 19.313C20.9746 19.4155 21.6302 19.5413 21.9017 19.5925C22.1731 19.6437 22.5009 19.7063 22.6302 19.7315C24.1545 20.0288 25.926 20.2449 27.4711 20.3219C28.3983 20.3681 30.5677 20.2028 30.6932 20.0764C30.7425 20.0267 30.3263 19.3401 29.7173 18.467C29.4892 18.1398 28.7217 17.2073 28.2707 16.7093C27.6145 15.9848 26.9875 15.3659 25.7998 14.2706C25.5171 14.0099 22.8743 11.7512 22.2072 11.2001C21.9745 11.0079 21.7736 10.84 21.7607 10.827C21.7477 10.814 21.547 10.6452 21.3144 10.4519C21.0819 10.2586 20.8176 10.035 20.727 9.95489C20.6363 9.87483 20.4353 9.69841 20.2802 9.56286C19.699 9.05477 18.9192 8.25998 18.6487 7.89977C18.324 7.46766 18.1806 7.20158 18.0727 6.83176C17.9826 6.52251 17.9061 5.90629 17.9481 5.82797C17.9641 5.7982 18.2416 5.49415 18.5647 5.15237C18.8878 4.81053 19.1733 4.50648 19.1992 4.47672C19.225 4.44695 19.3485 4.31595 19.4736 4.1856L19.7011 3.94862L18.5849 2.10307C17.971 1.08802 17.4351 0.199625 17.394 0.128896C17.3528 0.0581672 17.3052 0.000187526 17.2881 4.07623e-08C17.2711 -0.000140573 17.0352 0.363533 16.764 0.808247ZM10.6922 19.6232C9.71976 19.6831 8.63698 19.8489 7.94274 20.0444C7.4123 20.1937 6.78382 20.4035 6.55625 20.5071C6.427 20.5659 6.16098 20.6869 5.96509 20.7759C5.44433 21.0124 4.56008 21.5282 4.51961 21.6191C4.51096 21.6384 4.48464 21.6542 4.46105 21.6542C4.39262 21.6542 3.57764 22.2995 3.13199 22.7065L2.72399 23.0792L2.58637 23.5267C2.27979 24.5236 2.12342 25.626 2.08239 27.0796C2.06623 27.6531 2.06364 28.1225 2.07666 28.1225C2.08968 28.1225 2.43278 27.9635 2.83904 27.7693C3.24531 27.575 3.74026 27.3518 3.93898 27.2733C4.13769 27.1948 4.36371 27.1021 4.44126 27.0672C4.78629 26.912 6.09904 26.4766 6.78335 26.2903C7.22073 26.1713 7.20875 26.1799 7.68448 25.6358C7.76212 25.5469 8.1306 25.1262 8.50326 24.7009C8.87597 24.2755 9.29887 23.7912 9.44307 23.6246C10.2554 22.6864 10.8203 22.0716 10.857 22.0862C10.8753 22.0935 11.1736 22.4251 11.5198 22.823C11.866 23.2208 12.5227 23.9711 12.9791 24.4901L13.8091 25.4338L14.4831 25.489C15.7591 25.5937 17.7676 25.9429 19.5517 26.3705C20.0127 26.481 20.271 26.5374 21.6667 26.8326C22.5626 27.0222 24.1345 27.2724 24.9331 27.3526C25.973 27.457 27.8578 27.4902 28.9103 27.4226C30.0394 27.3501 32.0106 27.0992 32.4649 26.9703C32.5362 26.9501 32.5375 26.8008 32.4753 25.7555C32.3817 24.1814 32.0997 22.9185 31.5877 21.7805C31.4369 21.4453 31.4116 21.431 31.1136 21.5119C30.7685 21.6057 29.5987 21.7476 28.7722 21.7961C26.7107 21.917 24.471 21.6538 19.9277 20.7565C16.0103 19.983 14.4486 19.7466 12.5487 19.6396C11.7688 19.5956 11.2194 19.5908 10.6922 19.6232ZM10.7549 23.9461C10.7463 23.9693 10.6212 24.1222 10.4768 24.286C10.3325 24.4497 10.0575 24.7615 9.86583 24.9789C9.03309 25.923 8.88274 26.1052 8.88274 26.1705C8.88274 26.2087 8.89862 26.2468 8.91799 26.2554C8.93735 26.264 9.09071 26.429 9.25874 26.6219C9.42676 26.8149 9.66218 27.0785 9.78189 27.2078C9.9016 27.3371 10.0895 27.5483 10.1993 27.6772C10.5563 28.096 10.8173 28.3621 10.8569 28.3476C10.92 28.3244 12.7829 26.1803 12.771 26.1444C12.743 26.0594 10.8735 23.9093 10.8254 23.9069C10.7953 23.9053 10.7635 23.923 10.7549 23.9461Z" fill="#F3C000"/>
<path d="M16.1014 30.3806C16.6834 30.2042 16.9884 30.1426 17.6719 30.0635C18.0421 30.0208 18.553 30.0084 19.2934 30.0242C20.2571 30.0448 21.9974 30.1546 22.1839 30.2065C22.2227 30.2173 22.3918 30.2402 22.5599 30.2574C22.7279 30.2746 22.9077 30.2972 22.9594 30.3077C23.0111 30.3181 23.4129 30.3801 23.8524 30.4454C24.2918 30.5106 24.8206 30.5945 25.0274 30.6319C27.3422 31.0496 29.2801 31.0252 30.9151 30.5574C31.1806 30.4815 31.4344 30.4201 31.4791 30.4211C31.5238 30.4221 31.7676 30.6171 32.0209 30.8546L32.4815 31.2865L32.3585 31.7083C32.044 32.7868 31.4363 33.7104 30.3323 34.7878C29.6773 35.427 28.72 36.1214 27.8568 36.5835C27.6293 36.7052 27.4509 36.8125 27.4603 36.8219C27.4697 36.8312 27.6853 36.9027 27.9395 36.9807C28.6707 37.2052 29.6878 37.4421 30.1738 37.5011C30.8566 37.5839 32.2295 37.5145 32.5789 37.3794C32.6602 37.348 32.6951 37.376 32.9938 37.7125C33.0843 37.8144 33.248 37.9967 33.3576 38.1177L33.5569 38.3375L33.4345 38.6788C33.2679 39.1437 32.8483 39.9693 32.5687 40.3827C32.0579 41.1375 31.3747 41.854 30.6203 42.4261C30.3877 42.6025 30.1752 42.7647 30.1481 42.7865C29.9618 42.9366 28.8399 43.5553 28.3479 43.7793C26.635 44.5592 24.4493 45.0673 22.6539 45.1028L22.1134 45.1135L22.1004 44.3742C22.0905 43.8064 22.1014 43.631 22.1474 43.6178C22.1804 43.6083 22.5588 43.5763 22.9883 43.5467C24.2783 43.4578 25.8041 43.1048 27.0822 42.5995C27.7348 42.3415 28.4342 41.9718 29.0892 41.5384C29.8038 41.0657 30.7799 40.1102 31.2068 39.4655L31.5017 39.0202L30.544 38.9908C30.0173 38.9746 29.47 38.9371 29.3278 38.9075C29.1857 38.878 29.0165 38.8443 28.9518 38.8327C28.7155 38.7905 27.5956 38.4729 26.974 38.2718C25.9154 37.9294 24.9949 37.7323 24.4516 37.7315L24.2519 37.7313V36.965V36.1986L24.7336 36.1692C25.1537 36.1434 25.6232 36.0571 25.8499 35.9638C25.8886 35.9479 25.9309 35.9321 25.9439 35.9288C26.2619 35.8469 26.9931 35.4945 27.5089 35.1744C28.5077 34.5546 29.7818 33.3031 30.3122 32.4209L30.4192 32.2429L30.3082 32.2675C29.2659 32.4983 27.6901 32.59 26.6588 32.4798C25.9163 32.4005 24.6449 32.2093 23.7349 32.0399C22.2954 31.772 19.6011 31.5536 18.4345 31.6102C16.8457 31.6873 15.5776 32.1653 14.8011 32.9799C14.464 33.3335 14.3076 33.5839 14.1326 34.0502C14.0108 34.375 13.9884 34.5076 13.9699 35.0146C13.9458 35.6747 14.0042 35.9964 14.2396 36.4999C14.4331 36.9139 14.6358 37.192 15.009 37.5559C15.8614 38.3869 17.3284 38.9499 18.6412 38.9499H19.0342L19.0463 35.9384L19.0584 32.927H19.8104H20.5624L20.5743 39.0331L20.5862 45.1393L19.8223 45.1264L19.0584 45.1135L19.0462 42.7655L19.034 40.4174L18.4117 40.387C17.6365 40.3491 17.0395 40.2538 16.4029 40.0661C14.243 39.4296 12.7079 37.9875 12.2833 36.1962L12.2027 35.8564H11.0395C9.74793 35.8564 9.86604 35.8251 9.79968 36.1845C9.74586 36.4759 9.57878 36.9499 9.41358 37.2796C8.85574 38.393 7.9125 39.2505 6.62414 39.8154C6.08994 40.0497 5.08462 40.3351 4.68883 40.365L4.49576 40.3795L4.40848 40.0983C4.18025 39.3628 4.09499 38.9916 4.15045 38.9748C4.18128 38.9656 4.4074 38.9232 4.65297 38.8807C5.58122 38.7202 6.38444 38.352 7.00907 37.8007C8.14891 36.7948 8.50244 35.0582 7.84256 33.7068C7.28388 32.5626 5.83849 31.7946 4.11248 31.7249L3.83048 31.7136L3.80698 38.4135L3.78348 45.1135L3.01973 45.1264L2.25599 45.1393V38.477V31.8147L1.98574 31.8456C1.59165 31.8907 1.00725 32.0102 0.664012 32.1157C0.499278 32.1663 0.348268 32.1903 0.328434 32.169C0.286134 32.1234 0 30.9327 0 30.8022C0 30.7403 0.0605357 30.6913 0.199749 30.6407C0.973929 30.3595 2.51284 30.1381 3.6939 30.1381C5.21227 30.1381 6.65667 30.5279 7.74828 31.2321C8.15981 31.4976 8.78143 32.0839 9.04815 32.4582C9.40164 32.9542 9.71955 33.6721 9.80198 34.1603C9.86478 34.5321 9.74436 34.5002 11.0313 34.4862L12.1857 34.4737L12.2886 34.0519C12.7236 32.2693 14.0342 31.0073 16.1014 30.3806Z" fill="#F3132B"/>
<path d="M12.03 43.0249C12.9136 42.5641 13.8351 41.6428 14.5935 40.4619C14.6969 40.301 14.8007 40.1692 14.8244 40.169C14.9156 40.1681 16.0736 40.9454 16.0738 41.0076C16.074 41.105 15.5486 41.9059 15.133 42.4418C14.0729 43.8086 12.7911 44.6344 11.245 44.9463C10.7332 45.0495 9.52736 45.1518 9.09445 45.1286L8.81245 45.1135V44.3635V43.6136L9.58795 43.5855C10.7001 43.5451 11.2938 43.4088 12.03 43.0249Z" fill="#F3132B"/>
<path d="M4.93126 46.0725L5.60246 44.9719C5.97165 44.3666 6.29641 43.8714 6.32419 43.8714C6.35192 43.8714 6.42477 43.9611 6.48601 44.0706C6.54725 44.1801 6.83663 44.6676 7.12915 45.1537C7.42163 45.6399 7.66096 46.0488 7.66096 46.0624C7.66096 46.076 7.46774 46.3072 7.23161 46.5762L6.80227 47.0653L6.83226 47.3516C6.89528 47.9528 7.22691 49.0574 7.56832 49.803C7.62669 49.9306 7.72962 50.1618 7.79697 50.3169C7.86432 50.472 8.31336 51.3368 8.79483 52.2387C10.0711 54.6294 10.5343 55.6636 10.9058 56.9521C11.1676 57.8599 11.3487 58.7848 11.4032 59.4914L11.4345 59.8968L10.6736 59.9108C9.94453 59.9242 9.91191 59.9208 9.89401 59.831C9.88372 59.7795 9.85105 59.5264 9.82144 59.2686C9.64524 57.7354 9.07979 56.0912 8.07968 54.204C7.97111 53.9991 7.53608 53.1515 7.11299 52.3203C6.6899 51.489 6.33524 50.8035 6.32485 50.7969C6.30741 50.7858 4.96045 53.4145 4.22302 54.8989C3.82357 55.703 3.44738 56.6447 3.20289 57.4527C3.03473 58.0085 2.93734 58.483 2.77016 59.5615L2.71748 59.9013H1.94537H1.17321L1.19492 59.7959C1.20691 59.7379 1.22998 59.5322 1.2462 59.3389C1.28897 58.8302 1.48355 57.8024 1.64993 57.2062C1.72912 56.9227 1.80155 56.659 1.81095 56.6204C1.8517 56.4525 2.32475 55.2423 2.52553 54.7924C2.80631 54.1631 3.8482 52.1313 4.03972 51.8395C4.1818 51.623 4.87773 50.2271 5.07874 49.7554C5.37461 49.061 5.57346 48.4468 5.70788 47.8119C5.77392 47.4999 5.82797 47.2061 5.82797 47.159C5.82797 47.1118 5.6262 46.8481 5.37964 46.5729L4.93126 46.0725Z" fill="#F3132B"/>
<path d="M14.2409 51.3282V48.9813V46.6344L15.0047 46.6473L15.7684 46.6602L15.7806 48.9686C15.7921 51.1472 15.7975 51.277 15.8766 51.277C15.9226 51.277 16.3725 51.1728 16.8761 51.0454C17.9236 50.7806 18.3698 50.7146 19.1125 50.7146C19.7689 50.7146 20.1571 50.7679 21.1917 50.9999C21.6414 51.1008 22.0272 51.1833 22.0491 51.1833C22.071 51.1833 22.0945 50.1656 22.1012 48.9218L22.1134 46.6602H22.8774H23.6415V53.2691V59.8779H22.8774H22.1134L22.1013 56.3148L22.0893 52.7516L21.3493 52.5762C19.9285 52.2395 19.6937 52.2058 18.9174 52.2268C18.2532 52.2448 18.1593 52.2597 17.2959 52.4836C16.7918 52.6144 16.2472 52.7472 16.0857 52.7787L15.7919 52.836V56.3687V59.9013H15.0164H14.2409V56.3888C14.2409 54.3746 14.223 52.8651 14.1989 52.8503C14.1758 52.836 13.9484 52.7828 13.6937 52.7319C13.4389 52.6811 13.1576 52.618 13.0687 52.5917C12.8098 52.5153 12.0944 52.3921 11.5854 52.3363L11.1154 52.2848V51.5583V50.8318L11.5119 50.8427C11.9439 50.8545 12.7396 50.9843 13.4419 51.1574C13.6875 51.2179 13.9678 51.2811 14.0647 51.2978L14.2409 51.3282Z" fill="#F3132B"/>
<path d="M26.7308 53.2776C26.7371 49.6381 26.7424 46.655 26.7426 46.6485C26.7427 46.642 27.0812 46.6368 27.4948 46.6368H28.2468V52.5206C28.2468 57.8363 28.254 58.4071 28.321 58.4328C28.4666 58.4885 29.7255 58.3562 30.1973 58.2355C30.4558 58.1694 30.8867 58.0094 31.1548 57.8798C31.5687 57.6798 31.7 57.5866 32.0261 57.2612C32.3062 56.9818 32.4516 56.7914 32.5635 56.5576C33.0763 55.4861 32.9916 54.1996 32.352 53.3456C31.7931 52.599 30.7161 52.0305 29.4453 51.8112C29.2127 51.7711 29.0085 51.7241 28.9915 51.7068C28.9746 51.6896 29.0486 51.37 29.156 50.9966L29.3513 50.3178L29.5628 50.3324C30.5162 50.3985 31.9978 50.9383 32.7353 51.4883C33.6555 52.1746 34.2441 53.0237 34.4991 54.0329C34.627 54.5387 34.6263 55.5885 34.4978 56.1681C34.3144 56.9952 33.9113 57.7118 33.2831 58.3273C32.3566 59.2352 31.1965 59.731 29.482 59.9522C29.0525 60.0075 27.097 59.9862 26.8369 59.9233L26.7193 59.8949L26.7308 53.2776Z" fill="#F3132B"/>
<path d="M5.40417 56.9016C5.41761 56.8887 5.6159 56.662 5.8447 56.3977C6.07354 56.1335 6.27442 55.9188 6.29115 55.9207C6.32363 55.9244 7.62975 57.3987 7.74166 57.5581C7.80431 57.6473 7.76544 57.7023 7.13686 58.4141C6.76745 58.8325 6.42613 59.217 6.37838 59.2686C6.29218 59.3618 6.29073 59.3613 6.14207 59.1967C6.05977 59.1056 5.82068 58.842 5.61073 58.6108C5.05736 58.0016 4.79397 57.6869 4.79397 57.6349C4.79397 57.6 5.26153 57.0381 5.40417 56.9016Z" fill="#F3132B"/>
</svg>
