<svg width="24" height="24" viewBox="0 0 24 24" fill="none" xmlns="http://www.w3.org/2000/svg">
<path d="M13.1154 23.1504C12.4344 23.1627 11.7583 23.0319 11.1311 22.7663C11.067 22.7663 9.63747 22.0729 8.0372 21.1021C6.43693 20.1312 5.16738 19.1711 5.11404 19.1284C4.64482 18.7411 4.25067 18.2711 3.95117 17.7415L4.86866 17.1974C5.10794 17.6052 5.41873 17.9666 5.78615 18.2643C5.78615 18.2643 7.0557 19.2351 8.61329 20.1739C10.1709 21.1127 11.5898 21.7742 11.6111 21.7848C12.5966 22.1636 13.6875 22.1636 14.673 21.7848C14.673 21.7848 16.1132 21.1127 17.6708 20.1739C19.2284 19.2351 20.4873 18.2749 20.498 18.2643C21.3275 17.5355 21.8749 16.5388 22.0449 15.4478C22.0449 15.4478 22.2156 13.8048 22.2156 11.9272C22.2156 10.0495 22.0556 8.41725 22.0449 8.40659C21.874 7.3159 21.3267 6.31944 20.498 5.59011C20.498 5.59011 19.2284 4.61928 17.6708 3.68045C16.1132 2.74163 14.6196 2.10152 14.6196 2.10152C13.6342 1.72277 12.5433 1.72277 11.5578 2.10152C11.5578 2.10152 10.1175 2.77363 8.57062 3.71246C7.02369 4.65128 5.77548 5.60078 5.76481 5.61145C5.39772 5.90941 5.08698 6.27073 4.84732 6.67829L3.95117 6.15554C4.25661 5.62389 4.65815 5.15361 5.13537 4.76864C5.13537 4.76864 6.44759 3.7658 8.05853 2.79497C9.66947 1.82414 11.099 1.16269 11.1524 1.13069C12.4229 0.623104 13.8399 0.623104 15.1104 1.13069C15.1744 1.13069 16.5933 1.82414 18.2042 2.79497C19.8152 3.7658 21.0207 4.72596 21.1167 4.76864C22.1796 5.67612 22.8771 6.93843 23.0797 8.32124C23.0797 8.38525 23.2504 10.0175 23.2504 11.9485C23.2504 13.8795 23.0904 15.5118 23.0797 15.5758C22.8771 16.9586 22.1796 18.2209 21.1167 19.1284C21.1167 19.1284 19.8045 20.1312 18.1936 21.1021C16.5826 22.0729 15.1531 22.7343 15.0997 22.7663C14.4725 23.0319 13.7964 23.1627 13.1154 23.1504Z" fill="#1B1400"/>
<path d="M0.75 8.74805H5.01739V9.81489H1.81685V15.1491H0.75V8.74805Z" fill="#1B1400"/>
<path d="M9.28453 9.81489C9.70653 9.81489 10.1191 9.94003 10.4699 10.1745C10.8208 10.4089 11.0943 10.7422 11.2558 11.1321C11.4173 11.5219 11.4596 11.951 11.3772 12.3649C11.2949 12.7787 11.0917 13.1589 10.7933 13.4573C10.4949 13.7557 10.1147 13.959 9.70079 14.0413C9.28689 14.1236 8.85788 14.0814 8.468 13.9199C8.07812 13.7584 7.74488 13.4849 7.51043 13.134C7.27597 12.7831 7.15083 12.3706 7.15083 11.9486C7.15083 11.3827 7.37563 10.84 7.77578 10.4398C8.17592 10.0397 8.71864 9.81489 9.28453 9.81489ZM9.28453 8.74805C8.65152 8.74805 8.03273 8.93576 7.5064 9.28744C6.98008 9.63912 6.56985 10.139 6.32761 10.7238C6.08537 11.3086 6.02199 11.9521 6.14548 12.573C6.26898 13.1938 6.5738 13.7641 7.0214 14.2117C7.46901 14.6593 8.03929 14.9641 8.66013 15.0876C9.28098 15.2111 9.9245 15.1477 10.5093 14.9055C11.0941 14.6633 11.594 14.253 11.9457 13.7267C12.2974 13.2004 12.4851 12.5816 12.4851 11.9486C12.4851 11.0998 12.1479 10.2857 11.5477 9.68546C10.9474 9.08525 10.1334 8.74805 9.28453 8.74805Z" fill="#1B1400"/>
<path d="M16.7529 15.1491C16.2453 15.148 15.7453 15.0261 15.2941 14.7936C14.8429 14.5611 14.4535 14.2247 14.158 13.812C13.8624 13.3993 13.6693 12.9223 13.5945 12.4202C13.5197 11.9182 13.5654 11.4056 13.7278 10.9247C13.8902 10.4438 14.1646 10.0084 14.5284 9.65447C14.8922 9.30055 15.335 9.03823 15.8202 8.88917C16.3054 8.74011 16.8191 8.70859 17.3189 8.7972C17.8187 8.88582 18.2902 9.09203 18.6946 9.39882L18.0438 10.2416C17.6715 9.96242 17.2182 9.81257 16.7529 9.81489C16.4098 9.81522 16.0719 9.89827 15.7678 10.057C15.4636 10.2157 15.2022 10.4455 15.0058 10.7267C14.8093 11.008 14.6836 11.3325 14.6392 11.6726C14.5948 12.0128 14.6332 12.3587 14.7509 12.6809C14.8687 13.0032 15.0624 13.2923 15.3156 13.5237C15.5689 13.7551 15.8742 13.9221 16.2057 14.0104C16.5373 14.0987 16.8852 14.1058 17.22 14.031C17.5548 13.9562 17.8667 13.8018 18.1291 13.5809L18.8119 14.4023C18.2348 14.8857 17.5057 15.1501 16.7529 15.1491Z" fill="#1B1400"/>
</svg>
