<svg width="40" height="40" viewBox="0 0 40 40" fill="none" xmlns="http://www.w3.org/2000/svg">
<rect width="40" height="40" rx="8" fill="#F6F6F6"/>
<path d="M20.0003 28.3334C24.6027 28.3334 28.3337 24.6025 28.3337 20.0001C28.3337 15.3977 24.6027 11.6667 20.0003 11.6667C15.398 11.6667 11.667 15.3977 11.667 20.0001C11.667 24.6025 15.398 28.3334 20.0003 28.3334Z" stroke="#1B1400" stroke-linecap="round" stroke-linejoin="round"/>
<path d="M17.5752 17.5C17.7711 16.943 18.1578 16.4734 18.6668 16.1743C19.1758 15.8751 19.7743 15.7658 20.3562 15.8656C20.9381 15.9654 21.4659 16.2679 21.8461 16.7196C22.2263 17.1713 22.4344 17.7429 22.4335 18.3333C22.4335 20 19.9335 20.8333 19.9335 20.8333" stroke="#1B1400" stroke-linecap="round" stroke-linejoin="round"/>
<path d="M20 24.1667H20.0083" stroke="#1B1400" stroke-linecap="round" stroke-linejoin="round"/>
</svg>
