<svg width="27" height="33" viewBox="0 0 27 33" fill="none" xmlns="http://www.w3.org/2000/svg">
<path d="M21.7995 17.7368C21.7631 13.6878 25.1148 11.7179 25.2681 11.6262C23.3699 8.85863 20.4277 8.48049 19.3937 8.45034C16.9226 8.19029 14.5257 9.92898 13.2669 9.92898C11.9829 9.92898 10.0445 8.47547 7.9553 8.51818C5.26686 8.55964 2.75178 10.1162 1.37239 12.5333C-1.47435 17.4616 0.648769 24.7041 3.37616 28.6878C4.74048 30.6388 6.3347 32.8172 8.42138 32.7405C10.4628 32.6564 11.2254 31.439 13.689 31.439C16.1299 31.439 16.846 32.7405 18.9741 32.6915C21.1651 32.6564 22.5445 30.7317 23.8611 28.7632C25.4377 26.527 26.0709 24.3247 26.096 24.2116C26.0445 24.1941 21.841 22.5898 21.7995 17.7368Z" fill="white"/>
<path d="M17.7795 5.82932C18.8775 4.4562 19.6288 2.58811 19.4202 0.692383C17.831 0.762735 15.8436 1.79163 14.6991 3.13459C13.6865 4.31801 12.782 6.25771 13.0157 8.08183C14.8009 8.215 16.6338 7.18108 17.7795 5.82932Z" fill="white"/>
</svg>
