<svg width="14" height="14" viewBox="0 0 14 14" fill="none" xmlns="http://www.w3.org/2000/svg">
<path fill-rule="evenodd" clip-rule="evenodd" d="M3.29424 4.19473C2.3199 4.95255 1.75 6.11777 1.75 7.35213L1.75 11.5208C1.75 11.8302 1.87292 12.127 2.09171 12.3458C2.3105 12.5646 2.60725 12.6875 2.91667 12.6875L4.45 12.6875C4.73003 12.6875 4.87004 12.6875 4.977 12.633C5.07108 12.585 5.14757 12.5085 5.1955 12.4145C5.25 12.3075 5.25 12.1675 5.25 11.8875V8.74997C5.25 7.78347 6.0335 6.99997 7 6.99997C7.9665 6.99997 8.75 7.78347 8.75 8.74997V11.8875C8.75 12.1675 8.75 12.3075 8.8045 12.4145C8.85243 12.5085 8.92892 12.585 9.02301 12.633C9.12996 12.6875 9.26997 12.6875 9.55 12.6875L11.0833 12.6875C11.3928 12.6875 11.6895 12.5646 11.9083 12.3458C12.1271 12.127 12.25 11.8302 12.25 11.5208L12.25 7.35214C12.25 6.11777 11.6801 4.95255 10.7058 4.19473L8.22789 2.26749C7.50566 1.70576 6.49434 1.70576 5.77212 2.26749L3.29424 4.19473Z" fill="#1B1400" fill-opacity="0.4"/>
</svg>
