<svg width="40" height="40" viewBox="0 0 40 40" fill="none" xmlns="http://www.w3.org/2000/svg">
<rect width="40" height="40" rx="8" fill="#F6F6F6"/>
<path d="M25 16.6667C26.3807 16.6667 27.5 15.5475 27.5 14.1667C27.5 12.786 26.3807 11.6667 25 11.6667C23.6193 11.6667 22.5 12.786 22.5 14.1667C22.5 15.5475 23.6193 16.6667 25 16.6667Z" stroke="#1B1400" stroke-linecap="round" stroke-linejoin="round"/>
<path d="M15 22.5C16.3807 22.5 17.5 21.3807 17.5 20C17.5 18.6193 16.3807 17.5 15 17.5C13.6193 17.5 12.5 18.6193 12.5 20C12.5 21.3807 13.6193 22.5 15 22.5Z" stroke="#1B1400" stroke-linecap="round" stroke-linejoin="round"/>
<path d="M25 28.3333C26.3807 28.3333 27.5 27.214 27.5 25.8333C27.5 24.4525 26.3807 23.3333 25 23.3333C23.6193 23.3333 22.5 24.4525 22.5 25.8333C22.5 27.214 23.6193 28.3333 25 28.3333Z" stroke="#1B1400" stroke-linecap="round" stroke-linejoin="round"/>
<path d="M17.1582 21.2583L22.8499 24.575" stroke="#1B1400" stroke-linecap="round" stroke-linejoin="round"/>
<path d="M22.8415 15.425L17.1582 18.7417" stroke="#1B1400" stroke-linecap="round" stroke-linejoin="round"/>
</svg>
