<svg width="40" height="40" viewBox="0 0 40 40" fill="none" xmlns="http://www.w3.org/2000/svg">
<path d="M23.333 15H34.6663C35.7709 15 36.6663 15.8954 36.6663 17V33C36.6663 34.1046 35.7709 35 34.6663 35H23.333V15Z" stroke="#1B1400" stroke-width="1.5" stroke-linecap="round"/>
<path d="M5 7C5 5.89543 5.89543 5 7 5H21.3333C22.4379 5 23.3333 5.89543 23.3333 7V35H7C5.89543 35 5 34.1046 5 33V7Z" stroke="#1B1400" stroke-width="1.5" stroke-linecap="round"/>
<rect x="10" y="10" width="3.33333" height="3.33333" rx="0.5" fill="#FFCC33"/>
<rect x="15" y="10" width="3.33333" height="3.33333" rx="0.5" fill="#FFCC33"/>
<rect x="10" y="18.333" width="3.33333" height="3.33333" rx="0.5" fill="#FFCC33"/>
<rect x="15" y="18.333" width="3.33333" height="3.33333" rx="0.5" fill="#FFCC33"/>
<rect x="10" y="26.667" width="3.33333" height="3.33333" rx="0.5" fill="#FFCC33"/>
<rect x="15" y="26.667" width="3.33333" height="3.33333" rx="0.5" fill="#FFCC33"/>
<rect x="28.333" y="20" width="3.33333" height="3.33333" rx="0.5" fill="#FFCC33"/>
<rect x="28.333" y="26.667" width="3.33333" height="3.33333" rx="0.5" fill="#FFCC33"/>
</svg>
