<svg width="28" height="32" viewBox="0 0 28 32" fill="none" xmlns="http://www.w3.org/2000/svg">
<path fill-rule="evenodd" clip-rule="evenodd" d="M0.547631 1.04076C0.200498 1.41482 0 1.9864 0 2.73453V29.2692C0 30.0173 0.200498 30.5889 0.5596 30.948L0.652369 31.0288L15.5192 16.162V15.8298L0.640399 0.959961L0.547631 1.04076Z" fill="white"/>
<path fill-rule="evenodd" clip-rule="evenodd" d="M20.4654 21.1325L15.5068 16.1739V15.8268L20.4654 10.8682L20.5732 10.934L26.4385 14.2677C28.1173 15.2133 28.1173 16.7754 26.4385 17.733L20.5732 21.0667L20.4654 21.1325Z" fill="white" fill-opacity="0.3"/>
<path fill-rule="evenodd" clip-rule="evenodd" d="M20.5738 21.0663L15.5075 16L0.547852 30.9596C1.09548 31.5461 2.01419 31.612 3.04062 31.0404L20.5738 21.0663Z" fill="white" fill-opacity="0.6"/>
<path fill-rule="evenodd" clip-rule="evenodd" d="M20.5738 10.9339L3.04062 0.974824C2.01419 0.38829 1.09249 0.469088 0.547852 1.05562L15.5075 16.0003L20.5738 10.9339Z" fill="white" fill-opacity="0.6"/>
<path opacity="0.25" fill-rule="evenodd" clip-rule="evenodd" d="M3.0404 1.14873L26.4389 14.4415C27.199 14.8694 27.6269 15.429 27.6928 16.0006C27.6928 15.3752 27.2798 14.7467 26.4389 14.2679L3.0404 0.975168C1.3616 0.0145695 0 0.816565 0 2.73477V2.90834C0 0.987138 1.3616 0.200106 3.0404 1.14873Z" fill="white"/>
</svg>
