<svg width="40" height="40" viewBox="0 0 40 40" fill="none" xmlns="http://www.w3.org/2000/svg">
<path d="M19.9997 36.6663C29.2044 36.6663 36.6663 29.2044 36.6663 19.9997C36.6663 10.7949 29.2044 3.33301 19.9997 3.33301C10.7949 3.33301 3.33301 10.7949 3.33301 19.9997C3.33301 29.2044 10.7949 36.6663 19.9997 36.6663Z" stroke="#1B1400" stroke-width="1.5" stroke-linecap="round" stroke-linejoin="round"/>
<path d="M15.1504 15C15.5422 13.8861 16.3156 12.9468 17.3336 12.3485C18.3517 11.7502 19.5485 11.5315 20.7124 11.7312C21.8762 11.9308 22.9318 12.5358 23.6922 13.4392C24.4526 14.3425 24.8688 15.4858 24.8671 16.6666C24.8671 20 19.8671 21.6666 19.8671 21.6666" stroke="#FFCC33" stroke-width="1.5" stroke-linecap="round" stroke-linejoin="round"/>
<path d="M20 28.333H20.0167" stroke="#FFCC33" stroke-width="1.5" stroke-linecap="round" stroke-linejoin="round"/>
</svg>
