<svg width="40" height="40" viewBox="0 0 40 40" fill="none" xmlns="http://www.w3.org/2000/svg">
<path d="M34.0237 27.357C34.6488 26.7319 35 25.8841 35 25V8.33333C35 7.44928 34.6488 6.60143 34.0237 5.97631C33.3986 5.35119 32.5507 5 31.6667 5H8.33333C7.44928 5 6.60143 5.35119 5.97631 5.97631C5.35119 6.60143 5 7.44928 5 8.33333V35L11.6667 28.3333H31.6667C32.5507 28.3333 33.3986 27.9821 34.0237 27.357Z" stroke="#1B1400" stroke-width="1.5" stroke-linecap="round" stroke-linejoin="round"/>
<path d="M35 25C35 25.8841 34.6488 26.7319 34.0237 27.357C33.3986 27.9821 32.5507 28.3333 31.6667 28.3333H11.6667L5 35V8.33333C5 7.44928 5.35119 6.60143 5.97631 5.97631C6.60143 5.35119 7.44928 5 8.33333 5H31.6667C32.5507 5 33.3986 5.35119 34.0237 5.97631C34.6488 6.60143 35 7.44928 35 8.33333V25Z" stroke="#1B1400" stroke-width="1.5" stroke-linecap="round" stroke-linejoin="round"/>
<path d="M28.75 13.75C21.9158 13.75 18.0842 13.75 11.25 13.75M18.75 19.5833H11.25" stroke="#FFCC33" stroke-width="1.5" stroke-linecap="round" stroke-linejoin="round"/>
</svg>
