<svg width="42" height="42" viewBox="0 0 42 42" fill="none" xmlns="http://www.w3.org/2000/svg">
<circle cx="21" cy="21" r="20" stroke="#F6F6F6"/>
<path d="M20.1663 21.0001C20.1663 21.4603 20.5394 21.8334 20.9997 21.8334C21.4599 21.8334 21.833 21.4603 21.833 21.0001C21.833 20.5398 21.4599 20.1667 20.9997 20.1667C20.5394 20.1667 20.1663 20.5398 20.1663 21.0001Z" stroke="#1B1400" stroke-linecap="round" stroke-linejoin="round"/>
<path d="M20.1663 26.8333C20.1663 27.2936 20.5394 27.6667 20.9997 27.6667C21.4599 27.6667 21.833 27.2936 21.833 26.8333C21.833 26.3731 21.4599 26 20.9997 26C20.5394 26 20.1663 26.3731 20.1663 26.8333Z" stroke="#1B1400" stroke-linecap="round" stroke-linejoin="round"/>
<path d="M20.1663 15.1668C20.1663 15.6271 20.5394 16.0002 20.9997 16.0002C21.4599 16.0002 21.833 15.6271 21.833 15.1668C21.833 14.7066 21.4599 14.3335 20.9997 14.3335C20.5394 14.3335 20.1663 14.7066 20.1663 15.1668Z" stroke="#1B1400" stroke-linecap="round" stroke-linejoin="round"/>
</svg>
