<svg width="40" height="40" viewBox="0 0 40 40" fill="none" xmlns="http://www.w3.org/2000/svg">
<path d="M31.3337 3.33301C32.4382 3.33301 33.3337 4.22844 33.3337 5.33301V34.6663C33.3337 35.7709 32.4382 36.6663 31.3337 36.6663C23.7781 36.6663 16.2225 36.6663 8.66699 36.6663C7.56242 36.6663 6.66699 35.7709 6.66699 34.6663C6.66699 24.8886 6.66699 15.1108 6.66699 5.33301C6.66699 4.22844 7.56242 3.33301 8.66699 3.33301C16.2225 3.33301 23.7781 3.33301 31.3337 3.33301Z" stroke="#1B1400" stroke-width="1.5" stroke-linecap="round" stroke-linejoin="round"/>
<path d="M20.0003 18.3337C21.8413 18.3337 23.3337 16.8413 23.3337 15.0003C23.3337 13.1594 21.8413 11.667 20.0003 11.667C18.1594 11.667 16.667 13.1594 16.667 15.0003C16.667 16.8413 18.1594 18.3337 20.0003 18.3337Z" stroke="#FFCC33" stroke-width="1.5" stroke-linecap="round" stroke-linejoin="round"/>
<path d="M25.8337 27.4997V25.333C25.8337 24.2284 24.9382 23.333 23.8337 23.333H16.167C15.0624 23.333 14.167 24.2284 14.167 25.333L14.167 27.4997" stroke="#FFCC33" stroke-width="1.5" stroke-linecap="round" stroke-linejoin="round"/>
</svg>
