<svg width="237" height="208" viewBox="0 0 237 208" fill="none" xmlns="http://www.w3.org/2000/svg">
<path d="M204.573 203.312L200.253 203.312L198.198 186.604L204.574 186.605L204.573 203.312Z" fill="#FFB6B6"/>
<path d="M205.675 207.511L191.747 207.51V207.334C191.747 205.892 192.318 204.509 193.335 203.49C194.352 202.47 195.731 201.898 197.168 201.897H197.169L199.713 199.962L204.46 201.898L205.675 201.898L205.675 207.511Z" fill="#1B1400"/>
<path d="M184.505 203.312L180.186 203.312L178.131 186.604L184.506 186.605L184.505 203.312Z" fill="#FFB6B6"/>
<path d="M185.607 207.511L171.679 207.51V207.334C171.679 205.892 172.25 204.509 173.267 203.49C174.283 202.47 175.662 201.898 177.1 201.897H177.1L179.644 199.962L184.391 201.898L185.607 201.898L185.607 207.511Z" fill="#1B1400"/>
<path d="M182.636 111.971L210.732 112.675C216.068 115.581 216.149 121.872 214.401 129.341C214.401 129.341 214.991 133.78 213.811 134.963C212.63 136.147 212.04 136.147 212.63 138.219C213.22 140.29 210.102 143.674 210.481 144.054C210.859 144.434 211.745 146.505 211.745 146.505L208.794 163.374C208.794 163.374 206.728 192.672 206.137 193.264C205.547 193.856 204.957 193.264 205.547 194.743C206.137 196.223 206.728 195.631 206.137 196.223C205.615 196.788 205.122 197.381 204.662 197.999H197.527C197.527 197.999 196.989 195.039 196.989 194.743C196.989 194.447 196.399 192.672 196.399 192.376C196.399 192.08 196.92 191.557 196.92 191.557C197.101 190.955 197.222 190.338 197.284 189.712C197.284 189.121 199.055 166.333 199.055 166.333L195.513 136.739L186.955 165.741C186.955 165.741 186.955 191.192 186.365 191.784C185.774 192.376 185.774 192.08 186.069 193.264C186.365 194.447 187.545 194.151 186.66 195.039C185.774 195.927 185.479 194.447 185.774 195.927L186.069 197.407L177.216 197.534C177.216 197.534 176.035 195.039 176.626 194.151C177.216 193.264 177.181 193.506 176.46 192.053C175.74 190.6 175.445 190.304 175.74 190.008C176.035 189.712 176.035 188.138 176.035 188.138L177.511 159.822C177.511 159.822 177.806 129.932 177.806 129.045C177.828 128.588 177.744 128.132 177.561 127.713V126.508L178.692 122.238L182.636 111.971Z" fill="#1B1400"/>
<path d="M199.514 53.3851C204.335 53.3851 208.244 49.4658 208.244 44.631C208.244 39.7963 204.335 35.877 199.514 35.877C194.693 35.877 190.784 39.7963 190.784 44.631C190.784 49.4658 194.693 53.3851 199.514 53.3851Z" fill="#FFB6B6"/>
<path d="M195.149 59.1708C193.268 60.292 192.143 62.352 191.497 64.4483C190.301 68.3294 189.582 72.342 189.354 76.3976L188.672 88.5393L180.224 114.392C187.545 120.605 215.067 115.804 215.067 115.804C215.067 115.804 215.911 115.522 215.067 114.675C214.222 113.828 213.399 114.578 214.244 113.731C215.089 112.884 214.507 113.828 214.225 112.98C213.943 112.133 214.225 112.698 214.507 112.416C214.788 112.133 212.326 109.592 212.326 109.592L214.579 94.7518L217.395 64.8185C214.016 60.5827 207.22 58.0857 207.22 58.0857L205.464 54.916L196.684 55.6204L195.149 59.1708Z" fill="#F6F6F6"/>
<path d="M193.951 39.494C194.289 39.4966 194.625 39.5408 194.952 39.6257C195.597 39.7811 196.251 39.8912 196.911 39.9552C198.932 40.1458 200.831 41.0101 202.305 42.41C203.778 43.8098 204.742 45.6645 205.041 47.6778C205.548 47.2343 206.703 46.4185 207.649 47.1767C207.663 47.1887 207.671 47.1949 207.705 47.1791C208.333 46.8802 209.448 43.2012 209.482 39.9619C209.5 38.2426 209.23 36.0471 207.843 35.3518L207.77 35.3152L207.751 35.2356C207.659 34.8488 206.623 34.1886 204.825 33.6748C201.555 32.741 196.682 30.922 193.938 33.599C193.73 34.5015 193.055 36.4328 192.372 36.6517C191.616 36.894 190.964 37.1031 190.861 38.0328C190.775 39.3557 190.781 40.6831 190.88 42.0052C191.136 41.1962 191.638 40.4881 192.317 39.9806C192.799 39.6549 193.369 39.4851 193.951 39.494Z" fill="#2F2E41"/>
<path d="M177.703 87.8641L191.963 78.7061L184.78 69.1318L177.688 77.8801L155.591 79.2392C155.01 78.663 154.274 78.2689 153.473 78.1049C152.672 77.9409 151.841 78.014 151.081 78.3154C150.322 78.6168 149.665 79.1334 149.193 79.8023C148.721 80.4711 148.453 81.2633 148.422 82.0823C148.391 82.9012 148.598 83.7115 149.018 84.4143C149.439 85.1172 150.054 85.6822 150.789 86.0406C151.524 86.3989 152.347 86.535 153.158 86.4324C153.969 86.3298 154.732 85.9928 155.355 85.4625L177.703 87.8641Z" fill="#FFB6B6"/>
<path d="M205.198 65.9231C206.025 70.9458 190.396 80.5371 190.396 80.5371C190.396 79.3582 181.067 88.2582 180.646 87.2805C179.45 84.5017 178.608 77.9198 176.936 76.8663C175.98 76.2639 182.696 70.6042 182.696 70.6042C182.696 70.6042 186.211 67.0529 190.824 62.5733C192.105 61.2826 193.691 60.3379 195.433 59.827C197.176 59.3162 199.02 59.2558 200.792 59.6515C200.792 59.6515 204.37 60.9003 205.198 65.9231Z" fill="#F6F6F6"/>
<path d="M234.59 90.2677L225.158 76.165L215.765 83.5685L224.637 90.4936L226.46 112.619C225.898 113.214 225.52 113.96 225.374 114.766C225.227 115.572 225.318 116.404 225.634 117.159C225.951 117.915 226.48 118.562 227.157 119.021C227.833 119.48 228.629 119.732 229.446 119.746C230.263 119.76 231.067 119.535 231.758 119.099C232.45 118.662 233.001 118.034 233.342 117.289C233.684 116.545 233.802 115.717 233.683 114.906C233.563 114.095 233.211 113.337 232.669 112.723L234.59 90.2677Z" fill="#FFB6B6"/>
<path d="M212.133 63.1658C217.123 62.2297 227.017 77.6961 227.017 77.6961C225.841 77.7213 234.912 86.8852 233.946 87.328C231.201 88.5867 224.657 89.5696 223.642 91.2684C223.062 92.2399 217.277 85.6267 217.277 85.6267C217.277 85.6267 213.662 82.1775 209.098 77.6473C207.784 76.3905 206.808 74.8208 206.262 73.0843C205.716 71.3478 205.617 69.501 205.974 67.7157C205.974 67.7157 207.143 64.1019 212.133 63.1658Z" fill="#F6F6F6"/>
<path d="M145.807 80.5771H26.3371C24.4705 80.5793 22.6811 81.3237 21.3612 82.6473C20.0414 83.9708 19.299 85.7652 19.2969 87.637V162.226C19.299 164.097 20.0414 165.892 21.3612 167.215C22.6811 168.539 24.4705 169.283 26.3371 169.285H145.807C147.673 169.283 149.463 168.539 150.783 167.215C152.102 165.892 152.845 164.097 152.847 162.226V87.637C152.845 85.7652 152.102 83.9708 150.783 82.6472C149.463 81.3237 147.673 80.5792 145.807 80.5771Z" fill="#FFCC33"/>
<path d="M145.807 80.5771H26.3371C24.4705 80.5793 22.6811 81.3237 21.3612 82.6473C20.0414 83.9708 19.299 85.7652 19.2969 87.637V162.226C19.299 164.097 20.0414 165.892 21.3612 167.215C22.6811 168.539 24.4705 169.283 26.3371 169.285H145.807C147.673 169.283 149.463 168.539 150.783 167.215C152.102 165.892 152.845 164.097 152.847 162.226V87.637C152.845 85.7652 152.102 83.9708 150.783 82.6472C149.463 81.3237 147.673 80.5792 145.807 80.5771ZM148.117 134.155C148.089 141.749 145.093 149.029 139.774 154.433C134.454 159.837 127.234 162.936 119.663 163.064C107.541 163.222 126.37 163.284 111.75 163.284C78.3175 163.284 43.457 162.963 30.4501 162.756C28.7388 162.72 27.1091 162.015 25.9089 160.792C24.7088 159.568 24.0333 157.922 24.0267 156.205V87.6425C24.0274 87.0279 24.2708 86.4385 24.7036 86.0033C25.1365 85.5682 25.7236 85.3226 26.3366 85.3204H145.802C146.415 85.3211 147.002 85.5652 147.436 85.9992C147.87 86.4332 148.115 87.0218 148.117 87.6363V134.155Z" fill="#1B1400"/>
<path d="M131.101 37.627H40.0772C39.2719 37.6281 38.4865 37.8785 37.8283 38.3439C37.1702 38.8093 36.6713 39.4671 36.3998 40.2274L22.3418 79.7777C22.132 80.3681 22.0666 81.0003 22.1511 81.6212C22.2355 82.2422 22.4674 82.8337 22.8272 83.3461C23.187 83.8586 23.6642 84.2769 24.2187 84.5659C24.7732 84.855 25.3889 85.0063 26.0138 85.0072L148.091 85.2245H148.096C148.742 85.2245 149.378 85.0637 149.947 84.7565C150.516 84.4494 151 84.0055 151.356 83.4646C151.711 82.9237 151.928 82.3028 151.985 81.6576C152.042 81.0123 151.939 80.3628 151.685 79.7673L151.472 79.8587L151.685 79.7673L134.689 39.9997C134.388 39.2952 133.888 38.6946 133.25 38.2728C132.612 37.8509 131.865 37.6264 131.101 37.627Z" fill="#1B1400"/>
<path d="M152.001 80.6262C152.001 81.1566 151.893 81.6813 151.685 82.1688L134.69 112.781C134.388 113.484 133.887 114.083 133.249 114.504C132.611 114.925 131.865 115.15 131.101 115.151H40.079C39.2733 115.15 38.4876 114.9 37.8289 114.435C37.1701 113.97 36.6706 113.312 36.3983 112.552L22.3431 82.1583C22.1708 81.674 22.0954 81.1605 22.1211 80.6471C22.1469 80.1336 22.2733 79.6302 22.4931 79.1658C22.7129 78.7013 23.0219 78.2849 23.4023 77.9402C23.7828 77.5956 24.2272 77.3295 24.7102 77.1572C25.1281 77.0059 25.5689 76.9285 26.0132 76.9283L40.9254 76.9001L47.0118 76.8896L127.101 76.7487L133.191 76.7381L148.092 76.71H148.096C149.132 76.7101 150.125 77.1228 150.857 77.8572C151.59 78.5916 152.001 79.5876 152.001 80.6262Z" fill="#1B1400"/>
<path d="M35.2936 136.527C37.0985 136.527 61.8848 138.046 61.8848 139.856C61.8848 141.666 37.0985 143.082 35.2936 143.082C34.4268 143.082 33.5955 142.737 32.9826 142.122C32.3697 141.507 32.0254 140.674 32.0254 139.805C32.0254 138.935 32.3697 138.102 32.9826 137.487C33.5955 136.873 34.4268 136.527 35.2936 136.527Z" fill="#1B1400"/>
<path d="M125.432 13.5664H48.6829C46.6261 13.5688 44.6542 14.3892 43.1997 15.8477C41.7453 17.3061 40.9272 19.2836 40.9248 21.3462V115.151H131.1C131.841 115.153 132.566 114.941 133.19 114.541V21.3462C133.188 19.2836 132.37 17.3062 130.915 15.8477C129.461 14.3892 127.489 13.5688 125.432 13.5664Z" fill="white"/>
<path d="M113.456 107.318H60.6555C60.1991 107.318 59.7613 107.5 59.4386 107.824C59.1159 108.147 58.9346 108.586 58.9346 109.044C58.9346 109.502 59.1159 109.941 59.4386 110.264C59.7613 110.588 60.1991 110.77 60.6555 110.77H113.456C113.912 110.77 114.35 110.588 114.673 110.264C114.995 109.941 115.177 109.502 115.177 109.044C115.177 108.586 114.995 108.147 114.673 107.824C114.35 107.5 113.912 107.318 113.456 107.318Z" fill="#E4E4E4"/>
<path d="M113.457 100.492H60.6563C60.1994 100.492 59.7612 100.674 59.4382 100.998C59.1151 101.322 58.9336 101.762 58.9336 102.22C58.9336 102.678 59.1151 103.117 59.4382 103.441C59.7612 103.765 60.1994 103.947 60.6563 103.947H113.457C113.913 103.947 114.352 103.765 114.675 103.441C114.998 103.117 115.179 102.678 115.179 102.22C115.179 101.762 114.998 101.322 114.675 100.998C114.352 100.674 113.913 100.492 113.457 100.492Z" fill="#E4E4E4"/>
<path d="M83.5435 93.6709H60.6555C60.1991 93.6709 59.7613 93.8527 59.4386 94.1763C59.1159 94.5 58.9346 94.9389 58.9346 95.3966C58.9346 95.8543 59.1159 96.2932 59.4386 96.6169C59.7613 96.9405 60.1991 97.1223 60.6555 97.1223H83.5435C84 97.1223 84.4377 96.9405 84.7604 96.6169C85.0831 96.2932 85.2645 95.8543 85.2645 95.3966C85.2645 94.9389 85.0831 94.5 84.7604 94.1763C84.4377 93.8527 84 93.6709 83.5435 93.6709Z" fill="#E4E4E4"/>
<path d="M113.457 79.3789H60.6563C60.1994 79.3789 59.7612 79.5609 59.4382 79.8849C59.1151 80.2088 58.9336 80.6482 58.9336 81.1064C58.9336 81.5645 59.1151 82.0039 59.4382 82.3279C59.7612 82.6518 60.1994 82.8338 60.6563 82.8338H113.457C113.913 82.8338 114.352 82.6518 114.675 82.3279C114.998 82.0039 115.179 81.5645 115.179 81.1064C115.179 80.6482 114.998 80.2088 114.675 79.8849C114.352 79.5609 113.913 79.3789 113.457 79.3789Z" fill="#E4E4E4"/>
<path d="M113.456 72.5576H60.6555C60.1991 72.5576 59.7613 72.7394 59.4386 73.0631C59.1159 73.3867 58.9346 73.8256 58.9346 74.2833C58.9346 74.741 59.1159 75.1799 59.4386 75.5036C59.7613 75.8272 60.1991 76.009 60.6555 76.009H113.456C113.912 76.009 114.35 75.8272 114.673 75.5036C114.995 75.1799 115.177 74.741 115.177 74.2833C115.177 73.8256 114.995 73.3867 114.673 73.0631C114.35 72.7394 113.912 72.5576 113.456 72.5576Z" fill="#E4E4E4"/>
<path d="M83.5443 65.7324H60.6563C60.1994 65.7324 59.7612 65.9144 59.4382 66.2384C59.1151 66.5623 58.9336 67.0017 58.9336 67.4599C58.9336 67.918 59.1151 68.3574 59.4382 68.6814C59.7612 69.0054 60.1994 69.1874 60.6563 69.1874H83.5443C84.0012 69.1874 84.4394 69.0054 84.7624 68.6814C85.0855 68.3574 85.267 67.918 85.267 67.4599C85.267 67.0017 85.0855 66.5623 84.7624 66.2384C84.4394 65.9144 84.0012 65.7324 83.5443 65.7324Z" fill="#E4E4E4"/>
<path d="M113.457 51.4404H60.6563C60.1994 51.4404 59.7612 51.6224 59.4382 51.9464C59.1151 52.2704 58.9336 52.7097 58.9336 53.1679C58.9336 53.626 59.1151 54.0654 59.4382 54.3894C59.7612 54.7134 60.1994 54.8954 60.6563 54.8954H113.457C113.913 54.8954 114.352 54.7134 114.675 54.3894C114.998 54.0654 115.179 53.626 115.179 53.1679C115.179 52.7097 114.998 52.2704 114.675 51.9464C114.352 51.6224 113.913 51.4404 113.457 51.4404Z" fill="#FFCC33"/>
<path d="M113.457 44.6182H60.6563C60.1994 44.6182 59.7612 44.8002 59.4382 45.1241C59.1151 45.4481 58.9336 45.8875 58.9336 46.3456C58.9336 46.8038 59.1151 47.2432 59.4382 47.5671C59.7612 47.8911 60.1994 48.0731 60.6563 48.0731H113.457C113.913 48.0731 114.352 47.8911 114.675 47.5671C114.998 47.2432 115.179 46.8038 115.179 46.3456C115.179 45.8875 114.998 45.4481 114.675 45.1241C114.352 44.8002 113.913 44.6182 113.457 44.6182Z" fill="#FFCC33"/>
<path d="M83.5443 37.793H60.6563C60.1994 37.793 59.7612 37.975 59.4382 38.2989C59.1151 38.6229 58.9336 39.0623 58.9336 39.5204C58.9336 39.9786 59.1151 40.418 59.4382 40.7419C59.7612 41.0659 60.1994 41.2479 60.6563 41.2479H83.5443C84.0012 41.2479 84.4394 41.0659 84.7624 40.7419C85.0855 40.418 85.267 39.9786 85.267 39.5204C85.267 39.0623 85.0855 38.6229 84.7624 38.2989C84.4394 37.975 84.0012 37.793 83.5443 37.793Z" fill="#FFCC33"/>
<path d="M143.5 13.5C143.5 20.6797 137.68 26.5 130.5 26.5C123.32 26.5 117.5 20.6797 117.5 13.5C117.5 6.3203 123.32 0.5 130.5 0.5C137.68 0.5 143.5 6.3203 143.5 13.5Z" fill="#FFCC33" stroke="black"/>
<path d="M125 13L128.667 17L136 9" stroke="black" stroke-linecap="round" stroke-linejoin="round"/>
</svg>
