<svg width="258" height="171" viewBox="0 0 258 171" fill="none" xmlns="http://www.w3.org/2000/svg">
<path d="M129 171C200.245 171 258 166.299 258 160.5C258 154.701 200.245 150 129 150C57.7553 150 0 154.701 0 160.5C0 166.299 57.7553 171 129 171Z" fill="#E6E6E6"/>
<path d="M129.372 159.278H129.373C130.528 159.276 131.635 158.817 132.452 158.001C133.269 157.185 133.728 156.079 133.73 154.924V154.924V4.85376V4.8532C133.728 3.69891 133.269 2.59236 132.452 1.77629C131.635 0.960234 130.528 0.501288 129.373 0.5H129.372L92.1619 0.5L92.1613 0.5C91.0064 0.501299 89.8991 0.960252 89.0823 1.7763C88.2655 2.59237 87.806 3.69891 87.8047 4.8532V4.85376L87.8047 154.924L87.8047 154.924C87.806 156.079 88.2655 157.185 89.0823 158.001C89.8991 158.817 91.0064 159.276 92.1613 159.278H92.1619H129.372Z" fill="#E9B826" stroke="black"/>
<path d="M106.91 159.278H106.91C107.421 159.277 108.273 159.277 108.997 159.277L109.929 159.277L110.213 159.277L110.29 159.278L110.311 159.278H110.316H110.317H110.317L110.818 159.278L110.818 158.777V158.777V158.775L110.818 158.769L110.818 158.744L110.818 158.649L110.818 158.302L110.817 157.179C110.817 156.315 110.817 155.325 110.818 154.814L111.267 4.85526L111.267 4.8532C111.265 3.69891 110.806 2.59237 109.989 1.7763C109.172 0.960252 108.065 0.501299 106.91 0.5H106.91L69.699 0.5L69.6984 0.5C68.5435 0.501299 67.4362 0.960252 66.6194 1.7763C65.8026 2.59237 65.3431 3.69891 65.3418 4.8532V4.85376L65.3418 154.924L65.3418 154.924C65.3431 156.079 65.8026 157.185 66.6194 158.001C67.4362 158.817 68.5435 159.276 69.6984 159.278H69.699H106.91Z" fill="#FFCC33" stroke="black"/>
<path d="M84.2442 34.7973H75.709C75.4112 34.797 75.1258 34.677 74.9152 34.4638C74.7047 34.2505 74.5863 33.9613 74.5859 33.6597V20.4638C74.5863 20.1622 74.7047 19.873 74.9152 19.6597C75.1258 19.4465 75.4112 19.3265 75.709 19.3262H84.2442C84.5419 19.3265 84.8274 19.4465 85.0379 19.6597C85.2485 19.873 85.3669 20.1622 85.3672 20.4638V33.6597C85.3669 33.9613 85.2485 34.2505 85.0379 34.4638C84.8274 34.677 84.5419 34.797 84.2442 34.7973Z" fill="url(#paint0_linear_411_3984)"/>
<path d="M100.999 34.7218L92.4651 34.8719C92.1674 34.8768 91.8799 34.7619 91.6657 34.5523C91.4515 34.3428 91.3281 34.0558 91.3225 33.7542L91.0939 20.5603C91.089 20.2587 91.2024 19.9675 91.4093 19.7506C91.6161 19.5336 91.8994 19.4087 92.1971 19.4031L100.731 19.253C101.029 19.2482 101.316 19.3631 101.53 19.5726C101.745 19.7821 101.868 20.0692 101.874 20.3707L102.102 33.5647C102.107 33.8662 101.994 34.1574 101.787 34.3744C101.58 34.5913 101.297 34.7163 100.999 34.7218Z" fill="url(#paint1_linear_411_3984)"/>
<path d="M84.376 62.2863L75.8421 62.4364C75.5444 62.4413 75.2569 62.3263 75.0427 62.1168C74.8285 61.9073 74.705 61.6202 74.6995 61.3187L74.4709 48.1247C74.466 47.8232 74.5794 47.532 74.7862 47.315C74.993 47.0981 75.2764 46.9731 75.5741 46.9676L84.1079 46.8175C84.4056 46.8126 84.6931 46.9275 84.9073 47.1371C85.1215 47.3466 85.245 47.6336 85.2505 47.9352L85.4791 61.1291C85.484 61.4307 85.3706 61.7219 85.1638 61.9388C84.957 62.1558 84.6737 62.2807 84.376 62.2863Z" fill="url(#paint2_linear_411_3984)"/>
<path d="M100.999 62.38L92.4651 62.5301C92.1674 62.535 91.8799 62.4201 91.6657 62.2105C91.4515 62.001 91.3281 61.714 91.3225 61.4124L91.0939 48.2185C91.089 47.9169 91.2024 47.6257 91.4093 47.4088C91.6161 47.1918 91.8994 47.0669 92.1971 47.0613L100.731 46.9112C101.029 46.9064 101.316 47.0213 101.53 47.2308C101.745 47.4403 101.868 47.7274 101.874 48.0289L102.102 61.2229C102.107 61.5244 101.994 61.8156 101.787 62.0326C101.58 62.2495 101.297 62.3745 100.999 62.38Z" fill="url(#paint3_linear_411_3984)"/>
<path d="M84.376 89.9445L75.8421 90.0946C75.5444 90.0995 75.2569 89.9845 75.0427 89.775C74.8285 89.5655 74.705 89.2784 74.6995 88.9769L74.4709 75.7829C74.466 75.4814 74.5794 75.1902 74.7862 74.9732C74.993 74.7563 75.2764 74.6313 75.5741 74.6258L84.1079 74.4757C84.4056 74.4708 84.6931 74.5857 84.9073 74.7953C85.1215 75.0048 85.245 75.2918 85.2505 75.5934L85.4791 88.7873C85.484 89.0889 85.3706 89.3801 85.1638 89.597C84.957 89.814 84.6737 89.9389 84.376 89.9445Z" fill="url(#paint4_linear_411_3984)"/>
<path d="M100.999 90.0382L92.4651 90.1883C92.1674 90.1932 91.8799 90.0783 91.6657 89.8688C91.4515 89.6592 91.3281 89.3722 91.3225 89.0706L91.0939 75.8767C91.089 75.5751 91.2024 75.2839 91.4093 75.067C91.6161 74.8501 91.8994 74.7251 92.1971 74.7195L100.731 74.5694C101.029 74.5646 101.316 74.6795 101.53 74.889C101.745 75.0985 101.868 75.3856 101.874 75.6871L102.102 88.8811C102.107 89.1827 101.994 89.4738 101.787 89.6908C101.58 89.9077 101.297 90.0327 100.999 90.0382Z" fill="url(#paint5_linear_411_3984)"/>
<path d="M84.376 117.603L75.8421 117.753C75.5444 117.758 75.2569 117.643 75.0427 117.433C74.8285 117.224 74.705 116.937 74.6995 116.635L74.4709 103.441C74.466 103.14 74.5794 102.848 74.7862 102.631C74.993 102.415 75.2764 102.29 75.5741 102.284L84.1079 102.134C84.4056 102.129 84.6931 102.244 84.9073 102.453C85.1215 102.663 85.245 102.95 85.2505 103.252L85.4791 116.446C85.484 116.747 85.3706 117.038 85.1638 117.255C84.957 117.472 84.6737 117.597 84.376 117.603Z" fill="url(#paint6_linear_411_3984)"/>
<path d="M100.999 117.696L92.4651 117.847C92.1674 117.851 91.8799 117.736 91.6657 117.527C91.4515 117.317 91.3281 117.03 91.3225 116.729L91.0939 103.535C91.089 103.233 91.2024 102.942 91.4093 102.725C91.6161 102.508 91.8994 102.383 92.1971 102.378L100.731 102.228C101.029 102.223 101.316 102.338 101.53 102.547C101.745 102.757 101.868 103.044 101.874 103.345L102.102 116.539C102.107 116.841 101.994 117.132 101.787 117.349C101.58 117.566 101.297 117.691 100.999 117.696Z" fill="url(#paint7_linear_411_3984)"/>
<path d="M84.376 145.261L75.8421 145.411C75.5444 145.416 75.2569 145.301 75.0427 145.091C74.8285 144.882 74.705 144.595 74.6995 144.293L74.4709 131.099C74.466 130.798 74.5794 130.507 74.7862 130.29C74.993 130.073 75.2764 129.948 75.5741 129.942L84.1079 129.792C84.4056 129.787 84.6931 129.902 84.9073 130.112C85.1215 130.321 85.245 130.608 85.2505 130.91L85.4791 144.104C85.484 144.405 85.3706 144.696 85.1638 144.913C84.957 145.13 84.6737 145.255 84.376 145.261Z" fill="url(#paint8_linear_411_3984)"/>
<path d="M100.999 145.355L92.4651 145.505C92.1674 145.51 91.8799 145.395 91.6657 145.185C91.4515 144.976 91.3281 144.689 91.3225 144.387L91.0939 131.193C91.089 130.892 91.2024 130.6 91.4093 130.383C91.6161 130.166 91.8994 130.041 92.1971 130.036L100.731 129.886C101.029 129.881 101.316 129.996 101.53 130.205C101.745 130.415 101.868 130.702 101.874 131.004L102.102 144.197C102.107 144.499 101.994 144.79 101.787 145.007C101.58 145.224 101.297 145.349 100.999 145.355Z" fill="url(#paint9_linear_411_3984)"/>
<path d="M201.848 159.278H201.849C203.006 159.276 204.114 158.81 204.93 157.983C205.746 157.156 206.204 156.036 206.205 154.869V154.869V81.7488V81.7482C206.204 80.5816 205.746 79.4618 204.93 78.6348C204.114 77.8077 203.006 77.3412 201.849 77.3398H201.848L164.637 77.3398L164.637 77.3398C163.48 77.3412 162.372 77.8077 161.555 78.6348L161.911 78.986L161.555 78.6348C160.739 79.4618 160.282 80.5816 160.28 81.7482V81.7488L160.28 154.869L160.28 154.869C160.282 156.036 160.739 157.156 161.555 157.983C162.372 158.81 163.48 159.276 164.637 159.278H164.637H201.848Z" fill="#E9B826" stroke="black"/>
<path d="M179.422 159.278H179.423C179.929 159.277 180.884 159.277 181.712 159.277L182.788 159.278L183.12 159.278L183.211 159.278L183.235 159.278H183.241H183.242H183.243H183.243L183.743 159.278L183.743 158.777V158.777V158.777V158.775V158.769L183.743 158.745L183.743 158.652L183.743 158.312L183.743 157.212C183.742 156.364 183.742 155.387 183.743 154.869V154.869V81.7488V81.7482C183.742 80.5831 183.289 79.4638 182.48 78.6365C181.671 77.8089 180.572 77.3412 179.423 77.3398H179.422L115.592 77.3398L115.592 77.3398C114.443 77.3412 113.343 77.8089 112.534 78.6365C111.726 79.4638 111.273 80.5831 111.271 81.7482V81.7488L111.271 154.869L111.271 154.869C111.272 155.387 111.272 156.364 111.272 157.212L111.272 158.312L111.272 158.652L111.272 158.745L111.272 158.769L111.272 158.775L111.272 158.777L111.272 158.777L111.272 158.777L111.271 159.278L111.772 159.278H111.772H111.772H111.774H111.78L111.804 159.278L111.894 159.278L112.226 159.278L113.302 159.277C114.131 159.277 115.086 159.277 115.592 159.278H115.592H179.422Z" fill="#FFCC33" stroke="black"/>
<path d="M226 128.529C226 120.525 219.564 101.532 211.625 101.532C203.686 101.532 197.25 120.525 197.25 128.529C197.25 132.375 198.765 136.064 201.46 138.784C204.156 141.503 207.813 143.031 211.625 143.031C215.438 143.031 219.094 141.503 221.79 138.784C224.486 136.064 226 132.375 226 128.529H226Z" fill="#2B8454"/>
<path d="M222.406 128.529C222.406 120.525 215.97 101.532 208.031 101.532C200.092 101.532 193.656 120.525 193.656 128.529C193.656 132.375 195.171 136.064 197.867 138.784C200.562 141.503 204.219 143.031 208.031 143.031C211.844 143.031 215.5 141.503 218.196 138.784C220.892 136.064 222.406 132.375 222.406 128.529H222.406Z" fill="#3ABB75"/>
<path d="M208.48 160.955C208.361 160.954 208.246 160.907 208.162 160.822C208.078 160.737 208.03 160.622 208.03 160.501V120.104C208.03 119.983 208.078 119.868 208.162 119.783C208.246 119.698 208.361 119.65 208.48 119.65C208.599 119.65 208.713 119.698 208.798 119.783C208.882 119.868 208.929 119.983 208.929 120.104V160.501C208.929 160.622 208.882 160.737 208.798 160.822C208.713 160.907 208.599 160.955 208.48 160.955Z" fill="#1B1400"/>
<path d="M208.479 126.727C208.391 126.727 208.304 126.701 208.23 126.651C208.156 126.601 208.098 126.53 208.064 126.448C208.03 126.365 208.022 126.274 208.039 126.186C208.056 126.098 208.099 126.017 208.162 125.954L214.037 120.026C214.121 119.941 214.235 119.894 214.354 119.894C214.473 119.894 214.588 119.941 214.672 120.026C214.756 120.111 214.803 120.227 214.803 120.347C214.803 120.467 214.756 120.582 214.672 120.667L208.797 126.595C208.755 126.637 208.706 126.67 208.651 126.693C208.597 126.716 208.538 126.727 208.479 126.727Z" fill="#1B1400"/>
<path d="M197.271 161.001C197.273 158.826 198.078 156.741 199.511 155.204C200.943 153.667 202.885 152.804 204.909 152.804C206.934 152.804 208.876 153.667 210.308 155.204C211.74 156.741 212.546 158.826 212.547 161.001" fill="#3ABB75"/>
<path d="M204.963 159.195C204.914 159.195 204.866 159.177 204.828 159.144L202.334 156.969C202.313 156.951 202.295 156.929 202.283 156.904C202.27 156.88 202.263 156.853 202.26 156.825C202.258 156.797 202.261 156.769 202.27 156.743C202.278 156.716 202.292 156.691 202.31 156.67C202.328 156.649 202.35 156.632 202.374 156.619C202.399 156.607 202.425 156.599 202.453 156.597C202.48 156.595 202.508 156.599 202.534 156.608C202.56 156.616 202.584 156.63 202.604 156.649L205.099 158.823C205.131 158.851 205.154 158.889 205.165 158.931C205.175 158.972 205.173 159.016 205.158 159.057C205.144 159.097 205.117 159.132 205.082 159.157C205.047 159.181 205.006 159.195 204.963 159.195L204.963 159.195Z" fill="#1B1400"/>
<path d="M204.963 161C204.908 161 204.855 160.975 204.816 160.93C204.777 160.886 204.755 160.825 204.755 160.762V156.115C204.755 156.052 204.777 155.991 204.816 155.947C204.855 155.902 204.908 155.877 204.963 155.877C205.018 155.877 205.071 155.902 205.11 155.947C205.149 155.991 205.171 156.052 205.171 156.115V160.762C205.171 160.825 205.149 160.886 205.11 160.93C205.071 160.975 205.018 161 204.963 161Z" fill="#1B1400"/>
<path d="M210.511 161.001C210.512 158.826 211.318 156.741 212.75 155.204C214.182 153.667 216.124 152.804 218.149 152.804C220.173 152.804 222.115 153.667 223.547 155.204C224.98 156.741 225.785 158.826 225.787 161.001" fill="#3ABB75"/>
<path d="M218.202 159.195C218.152 159.195 218.104 159.177 218.066 159.144L215.572 156.969C215.551 156.951 215.534 156.929 215.521 156.904C215.509 156.88 215.501 156.853 215.499 156.825C215.497 156.797 215.5 156.769 215.508 156.743C215.517 156.716 215.53 156.691 215.548 156.67C215.566 156.649 215.588 156.632 215.612 156.619C215.637 156.607 215.664 156.599 215.691 156.597C215.718 156.595 215.746 156.599 215.772 156.608C215.798 156.616 215.822 156.63 215.843 156.649L218.337 158.823C218.369 158.851 218.392 158.889 218.403 158.931C218.414 158.972 218.411 159.016 218.397 159.057C218.382 159.097 218.355 159.132 218.32 159.157C218.286 159.181 218.244 159.195 218.202 159.195L218.202 159.195Z" fill="#1B1400"/>
<path d="M218.202 161C218.147 161 218.094 160.975 218.055 160.93C218.016 160.886 217.994 160.825 217.994 160.762V156.115C217.994 156.052 218.016 155.991 218.055 155.947C218.094 155.902 218.147 155.877 218.202 155.877C218.258 155.877 218.31 155.902 218.349 155.947C218.389 155.991 218.41 156.052 218.41 156.115V160.762C218.41 160.825 218.389 160.886 218.349 160.93C218.31 160.975 218.258 161 218.202 161Z" fill="#1B1400"/>
<path d="M74.3849 126.424C74.3849 118.448 67.9489 99.5215 60.0098 99.5215C52.0707 99.5215 45.6348 118.448 45.6348 126.424C45.6348 130.257 47.1493 133.933 49.8451 136.643C52.541 139.353 56.1973 140.876 60.0098 140.876C63.8223 140.876 67.4787 139.353 70.1745 136.643C72.8704 133.933 74.3849 130.257 74.3849 126.424H74.3849Z" fill="#2B8454"/>
<path d="M70.7911 126.424C70.7911 118.448 64.3552 99.5215 56.4161 99.5215C48.477 99.5215 42.041 118.448 42.041 126.424C42.041 130.257 43.5555 133.933 46.2514 136.643C48.9472 139.353 52.6036 140.876 56.4161 140.876C60.2286 140.876 63.8849 139.353 66.5808 136.643C69.2766 133.933 70.7911 130.257 70.7911 126.424H70.7911Z" fill="#3ABB75"/>
<path d="M56.8655 158.737C56.7463 158.737 56.632 158.69 56.5477 158.605C56.4634 158.52 56.416 158.406 56.416 158.286V118.029C56.416 117.909 56.4634 117.794 56.5477 117.709C56.632 117.625 56.7463 117.577 56.8655 117.577C56.9847 117.577 57.099 117.625 57.1833 117.709C57.2676 117.794 57.315 117.909 57.315 118.029V158.286C57.315 158.406 57.2676 158.52 57.1833 158.605C57.099 158.69 56.9847 158.737 56.8655 158.737Z" fill="#1B1400"/>
<path d="M56.8651 124.628C56.7763 124.628 56.6895 124.602 56.6156 124.552C56.5418 124.503 56.4842 124.432 56.4502 124.349C56.4162 124.267 56.4073 124.176 56.4246 124.089C56.442 124.001 56.4847 123.921 56.5475 123.857L62.4223 117.951C62.5065 117.866 62.6208 117.818 62.7399 117.818C62.859 117.818 62.9733 117.866 63.0575 117.951C63.1417 118.035 63.1891 118.15 63.1891 118.27C63.1891 118.39 63.1417 118.505 63.0575 118.589L57.1828 124.496C57.1411 124.538 57.0916 124.571 57.0371 124.594C56.9826 124.617 56.9241 124.628 56.8651 124.628Z" fill="#1B1400"/>
<path d="M45.0527 161.001C45.0543 158.826 45.8597 156.741 47.2919 155.204C48.7241 153.667 50.666 152.804 52.6907 152.804C54.7154 152.804 56.6572 153.667 58.0894 155.204C59.5217 156.741 60.327 158.826 60.3286 161.001" fill="#3ABB75"/>
<path d="M52.7433 161C52.6881 161 52.6352 160.975 52.5961 160.93C52.5571 160.886 52.5352 160.825 52.5352 160.762V156.115C52.5352 156.052 52.5571 155.991 52.5961 155.947C52.6352 155.902 52.6881 155.877 52.7433 155.877C52.7985 155.877 52.8515 155.902 52.8905 155.947C52.9295 155.991 52.9515 156.052 52.9515 156.115V160.762C52.9515 160.825 52.9295 160.886 52.8905 160.93C52.8515 160.975 52.7985 161 52.7433 161Z" fill="#1B1400"/>
<path d="M52.7436 159.195C52.694 159.195 52.646 159.177 52.6083 159.144L50.1139 156.969C50.0929 156.951 50.0757 156.929 50.0631 156.904C50.0505 156.88 50.0429 156.853 50.0407 156.825C50.0385 156.797 50.0417 156.769 50.0502 156.743C50.0587 156.716 50.0723 156.691 50.0902 156.67C50.1081 156.649 50.1299 156.632 50.1544 156.619C50.1789 156.607 50.2057 156.599 50.233 156.597C50.2604 156.595 50.2879 156.599 50.314 156.608C50.34 156.616 50.364 156.63 50.3847 156.649L52.8791 158.823C52.9114 158.851 52.9343 158.889 52.945 158.931C52.9556 158.972 52.9534 159.016 52.9387 159.057C52.9239 159.097 52.8973 159.132 52.8624 159.157C52.8276 159.181 52.7861 159.195 52.7436 159.195L52.7436 159.195Z" fill="#1B1400"/>
<path d="M32 161.001C32.0015 158.826 32.8069 156.741 34.2392 155.204C35.6714 153.667 37.6132 152.804 39.6379 152.804C41.6626 152.804 43.6045 153.667 45.0367 155.204C46.4689 156.741 47.2743 158.826 47.2759 161.001" fill="#3ABB75"/>
<path d="M39.6909 159.195C39.6412 159.195 39.5932 159.177 39.5556 159.144L37.0612 156.969C37.0402 156.951 37.0229 156.929 37.0104 156.904C36.9978 156.88 36.9902 156.853 36.988 156.825C36.9858 156.797 36.989 156.769 36.9975 156.743C37.006 156.716 37.0196 156.691 37.0374 156.67C37.0553 156.649 37.0772 156.632 37.1017 156.619C37.1262 156.607 37.1529 156.599 37.1803 156.597C37.2077 156.595 37.2352 156.599 37.2612 156.608C37.2872 156.616 37.3113 156.63 37.332 156.649L39.8264 158.823C39.8586 158.851 39.8816 158.889 39.8923 158.931C39.9029 158.972 39.9007 159.016 39.8859 159.057C39.8712 159.097 39.8446 159.132 39.8097 159.157C39.7748 159.181 39.7334 159.195 39.6909 159.195L39.6909 159.195Z" fill="#1B1400"/>
<path d="M39.6916 161C39.6364 161 39.5834 160.975 39.5444 160.93C39.5053 160.886 39.4834 160.825 39.4834 160.762V156.115C39.4834 156.052 39.5053 155.991 39.5444 155.947C39.5834 155.902 39.6363 155.877 39.6916 155.877C39.7468 155.877 39.7997 155.902 39.8387 155.947C39.8778 155.991 39.8997 156.052 39.8997 156.115V160.762C39.8997 160.825 39.8778 160.886 39.8387 160.93C39.7997 160.975 39.7468 161 39.6916 161Z" fill="#1B1400"/>
<path d="M57.1016 161.001C57.1031 158.826 57.9085 156.741 59.3407 155.204C60.7729 153.667 62.7148 152.804 64.7395 152.804C66.7642 152.804 68.706 153.667 70.1383 155.204C71.5705 156.741 72.3759 158.826 72.3774 161.001" fill="#3ABB75"/>
<path d="M64.7925 159.195C64.7428 159.195 64.6948 159.177 64.6572 159.144L62.1628 156.969C62.1418 156.951 62.1245 156.929 62.1119 156.904C62.0994 156.88 62.0917 156.853 62.0895 156.825C62.0873 156.797 62.0906 156.769 62.0991 156.743C62.1075 156.716 62.1211 156.691 62.139 156.67C62.1569 156.649 62.1787 156.632 62.2032 156.619C62.2278 156.607 62.2545 156.599 62.2819 156.597C62.3092 156.595 62.3367 156.599 62.3628 156.608C62.3888 156.616 62.4129 156.63 62.4335 156.649L64.928 158.823C64.9602 158.851 64.9832 158.889 64.9938 158.931C65.0045 158.972 65.0023 159.016 64.9875 159.057C64.9727 159.097 64.9461 159.132 64.9113 159.157C64.8764 159.181 64.8349 159.195 64.7925 159.195L64.7925 159.195Z" fill="#1B1400"/>
<path d="M64.7931 161C64.7379 161 64.685 160.975 64.6459 160.93C64.6069 160.886 64.585 160.825 64.585 160.762V156.115C64.585 156.052 64.6069 155.991 64.6459 155.947C64.685 155.902 64.7379 155.877 64.7931 155.877C64.8483 155.877 64.9013 155.902 64.9403 155.947C64.9793 155.991 65.0013 156.052 65.0013 156.115V160.762C65.0013 160.825 64.9793 160.886 64.9403 160.93C64.9013 160.975 64.8483 161 64.7931 161Z" fill="#1B1400"/>
<defs>
<linearGradient id="paint0_linear_411_3984" x1="77.0362" y1="19.8992" x2="80.077" y2="35.8085" gradientUnits="userSpaceOnUse">
<stop stop-color="white"/>
<stop offset="1" stop-color="white" stop-opacity="0"/>
</linearGradient>
<linearGradient id="paint1_linear_411_3984" x1="93.5341" y1="19.9528" x2="96.8537" y2="35.8054" gradientUnits="userSpaceOnUse">
<stop stop-color="white"/>
<stop offset="1" stop-color="white" stop-opacity="0"/>
</linearGradient>
<linearGradient id="paint2_linear_411_3984" x1="76.911" y1="47.5172" x2="80.2307" y2="63.3698" gradientUnits="userSpaceOnUse">
<stop stop-color="white"/>
<stop offset="1" stop-color="white" stop-opacity="0"/>
</linearGradient>
<linearGradient id="paint3_linear_411_3984" x1="93.5341" y1="47.611" x2="96.8537" y2="63.4636" gradientUnits="userSpaceOnUse">
<stop stop-color="white"/>
<stop offset="1" stop-color="white" stop-opacity="0"/>
</linearGradient>
<linearGradient id="paint4_linear_411_3984" x1="76.911" y1="75.1754" x2="80.2307" y2="91.028" gradientUnits="userSpaceOnUse">
<stop stop-color="white"/>
<stop offset="1" stop-color="white" stop-opacity="0"/>
</linearGradient>
<linearGradient id="paint5_linear_411_3984" x1="93.5341" y1="75.2692" x2="96.8537" y2="91.1218" gradientUnits="userSpaceOnUse">
<stop stop-color="white"/>
<stop offset="1" stop-color="white" stop-opacity="0"/>
</linearGradient>
<linearGradient id="paint6_linear_411_3984" x1="76.911" y1="102.834" x2="80.2307" y2="118.686" gradientUnits="userSpaceOnUse">
<stop stop-color="white"/>
<stop offset="1" stop-color="white" stop-opacity="0"/>
</linearGradient>
<linearGradient id="paint7_linear_411_3984" x1="93.5341" y1="102.927" x2="96.8537" y2="118.78" gradientUnits="userSpaceOnUse">
<stop stop-color="white"/>
<stop offset="1" stop-color="white" stop-opacity="0"/>
</linearGradient>
<linearGradient id="paint8_linear_411_3984" x1="76.911" y1="130.492" x2="80.2307" y2="146.344" gradientUnits="userSpaceOnUse">
<stop stop-color="white"/>
<stop offset="1" stop-color="white" stop-opacity="0"/>
</linearGradient>
<linearGradient id="paint9_linear_411_3984" x1="93.5341" y1="130.586" x2="96.8537" y2="146.438" gradientUnits="userSpaceOnUse">
<stop stop-color="white"/>
<stop offset="1" stop-color="white" stop-opacity="0"/>
</linearGradient>
</defs>
</svg>
